<mxfile host="Electron" modified="2025-01-29T15:00:40.757Z" agent="Mozilla/5.0 (Windows NT 10.0; Win64; x64) AppleWebKit/537.36 (KHTML, like Gecko) draw.io/24.0.4 Chrome/120.0.6099.109 Electron/28.1.0 Safari/537.36" etag="rXj-51jMnl3jkNAdjNv3" version="24.0.4" type="device">
  <diagram name="Page-1" id="0rDNOdrjLnxHtzLGbWz5">
    <mxGraphModel dx="4998" dy="3508" grid="1" gridSize="10" guides="1" tooltips="1" connect="1" arrows="1" fold="1" page="1" pageScale="1" pageWidth="850" pageHeight="1100" math="0" shadow="0">
      <root>
        <mxCell id="0" />
        <mxCell id="1" parent="0" />
        <mxCell id="mwmqVNh6cQAWsO2lgj9f-10" style="rounded=0;orthogonalLoop=1;jettySize=auto;html=1;entryX=0;entryY=0.5;entryDx=0;entryDy=0;endArrow=block;endFill=0;endSize=16;" edge="1" parent="1" source="jMa4udjqpZTwk5GpyU89-69" target="mwmqVNh6cQAWsO2lgj9f-9">
          <mxGeometry relative="1" as="geometry" />
        </mxCell>
        <mxCell id="mwmqVNh6cQAWsO2lgj9f-17" value="Extends" style="edgeLabel;html=1;align=center;verticalAlign=middle;resizable=0;points=[];" vertex="1" connectable="0" parent="mwmqVNh6cQAWsO2lgj9f-10">
          <mxGeometry x="0.0158" relative="1" as="geometry">
            <mxPoint as="offset" />
          </mxGeometry>
        </mxCell>
        <mxCell id="jMa4udjqpZTwk5GpyU89-69" value="Client" style="swimlane;fontStyle=1;align=center;verticalAlign=top;childLayout=stackLayout;horizontal=1;startSize=31.666666666666668;horizontalStack=0;resizeParent=1;resizeParentMax=0;resizeLast=0;collapsible=0;marginBottom=0;" parent="1" vertex="1">
          <mxGeometry x="-200" y="20" width="488" height="103.66666666666667" as="geometry" />
        </mxCell>
        <mxCell id="jMa4udjqpZTwk5GpyU89-70" value="Â " style="text;strokeColor=none;fillColor=none;align=left;verticalAlign=top;spacingLeft=4;spacingRight=4;overflow=hidden;rotatable=0;points=[[0,0.5],[1,0.5]];portConstraint=eastwest;" parent="jMa4udjqpZTwk5GpyU89-69" vertex="1">
          <mxGeometry y="31.666666666666668" width="488" height="32" as="geometry" />
        </mxCell>
        <mxCell id="jMa4udjqpZTwk5GpyU89-71" style="line;strokeWidth=1;fillColor=none;align=left;verticalAlign=middle;spacingTop=-1;spacingLeft=3;spacingRight=3;rotatable=0;labelPosition=right;points=[];portConstraint=eastwest;strokeColor=inherit;" parent="jMa4udjqpZTwk5GpyU89-69" vertex="1">
          <mxGeometry y="63.66666666666667" width="488" height="8" as="geometry" />
        </mxCell>
        <mxCell id="jMa4udjqpZTwk5GpyU89-72" value="+ GetAvailableSlots(instructor : Instructor, date: Datetime) : List&lt;TimeSlot&gt;" style="text;strokeColor=none;fillColor=none;align=left;verticalAlign=top;spacingLeft=4;spacingRight=4;overflow=hidden;rotatable=0;points=[[0,0.5],[1,0.5]];portConstraint=eastwest;" parent="jMa4udjqpZTwk5GpyU89-69" vertex="1">
          <mxGeometry y="71.66666666666667" width="488" height="32" as="geometry" />
        </mxCell>
        <mxCell id="jMa4udjqpZTwk5GpyU89-73" value="Instructor" style="swimlane;fontStyle=1;align=center;verticalAlign=top;childLayout=stackLayout;horizontal=1;startSize=26.04166603088379;horizontalStack=0;resizeParent=1;resizeParentMax=0;resizeLast=0;collapsible=0;marginBottom=0;" parent="1" vertex="1">
          <mxGeometry x="400" y="20" width="256" height="190.0416660308838" as="geometry" />
        </mxCell>
        <mxCell id="jMa4udjqpZTwk5GpyU89-75" value="- _fullName : string" style="text;strokeColor=none;fillColor=none;align=left;verticalAlign=top;spacingLeft=4;spacingRight=4;overflow=hidden;rotatable=0;points=[[0,0.5],[1,0.5]];portConstraint=eastwest;" parent="jMa4udjqpZTwk5GpyU89-73" vertex="1">
          <mxGeometry y="26.04166603088379" width="256" height="26" as="geometry" />
        </mxCell>
        <mxCell id="jMa4udjqpZTwk5GpyU89-76" value="- _shifts : List&lt;Shift&gt;" style="text;strokeColor=none;fillColor=none;align=left;verticalAlign=top;spacingLeft=4;spacingRight=4;overflow=hidden;rotatable=0;points=[[0,0.5],[1,0.5]];portConstraint=eastwest;" parent="jMa4udjqpZTwk5GpyU89-73" vertex="1">
          <mxGeometry y="52.04166603088379" width="256" height="26" as="geometry" />
        </mxCell>
        <mxCell id="jMa4udjqpZTwk5GpyU89-77" style="line;strokeWidth=1;fillColor=none;align=left;verticalAlign=middle;spacingTop=-1;spacingLeft=3;spacingRight=3;rotatable=0;labelPosition=right;points=[];portConstraint=eastwest;strokeColor=inherit;" parent="jMa4udjqpZTwk5GpyU89-73" vertex="1">
          <mxGeometry y="78.04166603088379" width="256" height="8" as="geometry" />
        </mxCell>
        <mxCell id="jMa4udjqpZTwk5GpyU89-78" value="+ viewSchedule(range) : void" style="text;strokeColor=none;fillColor=none;align=left;verticalAlign=top;spacingLeft=4;spacingRight=4;overflow=hidden;rotatable=0;points=[[0,0.5],[1,0.5]];portConstraint=eastwest;" parent="jMa4udjqpZTwk5GpyU89-73" vertex="1">
          <mxGeometry y="86.04166603088379" width="256" height="26" as="geometry" />
        </mxCell>
        <mxCell id="jMa4udjqpZTwk5GpyU89-79" value="+ viewDailySchedule(date) : void" style="text;strokeColor=none;fillColor=none;align=left;verticalAlign=top;spacingLeft=4;spacingRight=4;overflow=hidden;rotatable=0;points=[[0,0.5],[1,0.5]];portConstraint=eastwest;" parent="jMa4udjqpZTwk5GpyU89-73" vertex="1">
          <mxGeometry y="112.04166603088379" width="256" height="26" as="geometry" />
        </mxCell>
        <mxCell id="jMa4udjqpZTwk5GpyU89-80" value="+ requestBreak(time) : void" style="text;strokeColor=none;fillColor=none;align=left;verticalAlign=top;spacingLeft=4;spacingRight=4;overflow=hidden;rotatable=0;points=[[0,0.5],[1,0.5]];portConstraint=eastwest;" parent="jMa4udjqpZTwk5GpyU89-73" vertex="1">
          <mxGeometry y="138.0416660308838" width="256" height="26" as="geometry" />
        </mxCell>
        <mxCell id="jMa4udjqpZTwk5GpyU89-81" value="+ requestEarlyClosure(time) : void" style="text;strokeColor=none;fillColor=none;align=left;verticalAlign=top;spacingLeft=4;spacingRight=4;overflow=hidden;rotatable=0;points=[[0,0.5],[1,0.5]];portConstraint=eastwest;" parent="jMa4udjqpZTwk5GpyU89-73" vertex="1">
          <mxGeometry y="164.0416660308838" width="256" height="26" as="geometry" />
        </mxCell>
        <mxCell id="jMa4udjqpZTwk5GpyU89-82" value="Administrator" style="swimlane;fontStyle=1;align=center;verticalAlign=top;childLayout=stackLayout;horizontal=1;startSize=26.04166603088379;horizontalStack=0;resizeParent=1;resizeParentMax=0;resizeLast=0;collapsible=0;marginBottom=0;" parent="1" vertex="1">
          <mxGeometry x="838" y="20" width="482" height="190.0416660308838" as="geometry" />
        </mxCell>
        <mxCell id="jMa4udjqpZTwk5GpyU89-84" value="- _fullName : string" style="text;strokeColor=none;fillColor=none;align=left;verticalAlign=top;spacingLeft=4;spacingRight=4;overflow=hidden;rotatable=0;points=[[0,0.5],[1,0.5]];portConstraint=eastwest;" parent="jMa4udjqpZTwk5GpyU89-82" vertex="1">
          <mxGeometry y="26.04166603088379" width="482" height="26" as="geometry" />
        </mxCell>
        <mxCell id="jMa4udjqpZTwk5GpyU89-85" style="line;strokeWidth=1;fillColor=none;align=left;verticalAlign=middle;spacingTop=-1;spacingLeft=3;spacingRight=3;rotatable=0;labelPosition=right;points=[];portConstraint=eastwest;strokeColor=inherit;" parent="jMa4udjqpZTwk5GpyU89-82" vertex="1">
          <mxGeometry y="52.04166603088379" width="482" height="8" as="geometry" />
        </mxCell>
        <mxCell id="jMa4udjqpZTwk5GpyU89-86" value="+ addShift(instructor : Instructor, start : time, end : time) : void" style="text;strokeColor=none;fillColor=none;align=left;verticalAlign=top;spacingLeft=4;spacingRight=4;overflow=hidden;rotatable=0;points=[[0,0.5],[1,0.5]];portConstraint=eastwest;" parent="jMa4udjqpZTwk5GpyU89-82" vertex="1">
          <mxGeometry y="60.04166603088379" width="482" height="26" as="geometry" />
        </mxCell>
        <mxCell id="jMa4udjqpZTwk5GpyU89-87" value="+ modifyShift(shift : Shift, newStart : time, newEnd : time) : void" style="text;strokeColor=none;fillColor=none;align=left;verticalAlign=top;spacingLeft=4;spacingRight=4;overflow=hidden;rotatable=0;points=[[0,0.5],[1,0.5]];portConstraint=eastwest;" parent="jMa4udjqpZTwk5GpyU89-82" vertex="1">
          <mxGeometry y="86.04166603088379" width="482" height="26" as="geometry" />
        </mxCell>
        <mxCell id="jMa4udjqpZTwk5GpyU89-88" value="+ addActivity(shift : Shift, type : ActivityType) : void" style="text;strokeColor=none;fillColor=none;align=left;verticalAlign=top;spacingLeft=4;spacingRight=4;overflow=hidden;rotatable=0;points=[[0,0.5],[1,0.5]];portConstraint=eastwest;" parent="jMa4udjqpZTwk5GpyU89-82" vertex="1">
          <mxGeometry y="112.04166603088379" width="482" height="26" as="geometry" />
        </mxCell>
        <mxCell id="jMa4udjqpZTwk5GpyU89-89" value="+ approveRequest(request : ScheduleRequest) : void" style="text;strokeColor=none;fillColor=none;align=left;verticalAlign=top;spacingLeft=4;spacingRight=4;overflow=hidden;rotatable=0;points=[[0,0.5],[1,0.5]];portConstraint=eastwest;" parent="jMa4udjqpZTwk5GpyU89-82" vertex="1">
          <mxGeometry y="138.0416660308838" width="482" height="26" as="geometry" />
        </mxCell>
        <mxCell id="jMa4udjqpZTwk5GpyU89-90" value="+ rejectRequest(request : ScheduleRequest) : void" style="text;strokeColor=none;fillColor=none;align=left;verticalAlign=top;spacingLeft=4;spacingRight=4;overflow=hidden;rotatable=0;points=[[0,0.5],[1,0.5]];portConstraint=eastwest;" parent="jMa4udjqpZTwk5GpyU89-82" vertex="1">
          <mxGeometry y="164.0416660308838" width="482" height="26" as="geometry" />
        </mxCell>
        <mxCell id="jMa4udjqpZTwk5GpyU89-91" value="SeniorAdministrator" style="swimlane;fontStyle=1;align=center;verticalAlign=top;childLayout=stackLayout;horizontal=1;startSize=27.166666666666668;horizontalStack=0;resizeParent=1;resizeParentMax=0;resizeLast=0;collapsible=0;marginBottom=0;" parent="1" vertex="1">
          <mxGeometry x="1470" y="20" width="566" height="143.16666666666669" as="geometry" />
        </mxCell>
        <mxCell id="jMa4udjqpZTwk5GpyU89-93" value="Â " style="text;strokeColor=none;fillColor=none;align=left;verticalAlign=top;spacingLeft=4;spacingRight=4;overflow=hidden;rotatable=0;points=[[0,0.5],[1,0.5]];portConstraint=eastwest;" parent="jMa4udjqpZTwk5GpyU89-91" vertex="1">
          <mxGeometry y="27.166666666666668" width="566" height="27" as="geometry" />
        </mxCell>
        <mxCell id="jMa4udjqpZTwk5GpyU89-94" style="line;strokeWidth=1;fillColor=none;align=left;verticalAlign=middle;spacingTop=-1;spacingLeft=3;spacingRight=3;rotatable=0;labelPosition=right;points=[];portConstraint=eastwest;strokeColor=inherit;" parent="jMa4udjqpZTwk5GpyU89-91" vertex="1">
          <mxGeometry y="54.16666666666667" width="566" height="8" as="geometry" />
        </mxCell>
        <mxCell id="jMa4udjqpZTwk5GpyU89-95" value="+ addWorkDay(date : date, start : time, end : time, type : DayType) : void" style="text;strokeColor=none;fillColor=none;align=left;verticalAlign=top;spacingLeft=4;spacingRight=4;overflow=hidden;rotatable=0;points=[[0,0.5],[1,0.5]];portConstraint=eastwest;" parent="jMa4udjqpZTwk5GpyU89-91" vertex="1">
          <mxGeometry y="62.16666666666667" width="566" height="27" as="geometry" />
        </mxCell>
        <mxCell id="jMa4udjqpZTwk5GpyU89-96" value="+ modifyWorkDay(workDay : WorkDay, newStart : time, newEnd : time) : void" style="text;strokeColor=none;fillColor=none;align=left;verticalAlign=top;spacingLeft=4;spacingRight=4;overflow=hidden;rotatable=0;points=[[0,0.5],[1,0.5]];portConstraint=eastwest;" parent="jMa4udjqpZTwk5GpyU89-91" vertex="1">
          <mxGeometry y="89.16666666666667" width="566" height="27" as="geometry" />
        </mxCell>
        <mxCell id="jMa4udjqpZTwk5GpyU89-97" value="+ addShifts(instructors : List&lt;Instructor&gt;, start : time, end : time) : void" style="text;strokeColor=none;fillColor=none;align=left;verticalAlign=top;spacingLeft=4;spacingRight=4;overflow=hidden;rotatable=0;points=[[0,0.5],[1,0.5]];portConstraint=eastwest;" parent="jMa4udjqpZTwk5GpyU89-91" vertex="1">
          <mxGeometry y="116.16666666666667" width="566" height="27" as="geometry" />
        </mxCell>
        <mxCell id="jMa4udjqpZTwk5GpyU89-98" value="WorkDay" style="swimlane;fontStyle=1;align=center;verticalAlign=top;childLayout=stackLayout;horizontal=1;startSize=24.755556233723958;horizontalStack=0;resizeParent=1;resizeParentMax=0;resizeLast=0;collapsible=0;marginBottom=0;" parent="1" vertex="1">
          <mxGeometry x="480" y="360" width="160" height="229.99555623372396" as="geometry" />
        </mxCell>
        <mxCell id="jMa4udjqpZTwk5GpyU89-99" value="- _id : int" style="text;strokeColor=none;fillColor=none;align=left;verticalAlign=top;spacingLeft=4;spacingRight=4;overflow=hidden;rotatable=0;points=[[0,0.5],[1,0.5]];portConstraint=eastwest;" parent="jMa4udjqpZTwk5GpyU89-98" vertex="1">
          <mxGeometry y="24.755556233723958" width="160" height="25" as="geometry" />
        </mxCell>
        <mxCell id="jMa4udjqpZTwk5GpyU89-100" value="- _date : date" style="text;strokeColor=none;fillColor=none;align=left;verticalAlign=top;spacingLeft=4;spacingRight=4;overflow=hidden;rotatable=0;points=[[0,0.5],[1,0.5]];portConstraint=eastwest;" parent="jMa4udjqpZTwk5GpyU89-98" vertex="1">
          <mxGeometry y="49.75555623372396" width="160" height="25" as="geometry" />
        </mxCell>
        <mxCell id="jMa4udjqpZTwk5GpyU89-101" value="- _startTime : time" style="text;strokeColor=none;fillColor=none;align=left;verticalAlign=top;spacingLeft=4;spacingRight=4;overflow=hidden;rotatable=0;points=[[0,0.5],[1,0.5]];portConstraint=eastwest;" parent="jMa4udjqpZTwk5GpyU89-98" vertex="1">
          <mxGeometry y="74.75555623372395" width="160" height="25" as="geometry" />
        </mxCell>
        <mxCell id="jMa4udjqpZTwk5GpyU89-102" value="- _endTime : time" style="text;strokeColor=none;fillColor=none;align=left;verticalAlign=top;spacingLeft=4;spacingRight=4;overflow=hidden;rotatable=0;points=[[0,0.5],[1,0.5]];portConstraint=eastwest;" parent="jMa4udjqpZTwk5GpyU89-98" vertex="1">
          <mxGeometry y="99.75555623372395" width="160" height="25" as="geometry" />
        </mxCell>
        <mxCell id="jMa4udjqpZTwk5GpyU89-103" value="- _dayType : DayType" style="text;strokeColor=none;fillColor=none;align=left;verticalAlign=top;spacingLeft=4;spacingRight=4;overflow=hidden;rotatable=0;points=[[0,0.5],[1,0.5]];portConstraint=eastwest;" parent="jMa4udjqpZTwk5GpyU89-98" vertex="1">
          <mxGeometry y="124.75555623372395" width="160" height="25" as="geometry" />
        </mxCell>
        <mxCell id="jMa4udjqpZTwk5GpyU89-104" value="- _shifts : List&lt;Shift&gt;" style="text;strokeColor=none;fillColor=none;align=left;verticalAlign=top;spacingLeft=4;spacingRight=4;overflow=hidden;rotatable=0;points=[[0,0.5],[1,0.5]];portConstraint=eastwest;" parent="jMa4udjqpZTwk5GpyU89-98" vertex="1">
          <mxGeometry y="149.75555623372395" width="160" height="25" as="geometry" />
        </mxCell>
        <mxCell id="jMa4udjqpZTwk5GpyU89-105" style="line;strokeWidth=1;fillColor=none;align=left;verticalAlign=middle;spacingTop=-1;spacingLeft=3;spacingRight=3;rotatable=0;labelPosition=right;points=[];portConstraint=eastwest;strokeColor=inherit;" parent="jMa4udjqpZTwk5GpyU89-98" vertex="1">
          <mxGeometry y="174.75555623372395" width="160" height="12" as="geometry" />
        </mxCell>
        <mxCell id="mwmqVNh6cQAWsO2lgj9f-24" value="+ AddShift(Shift) : void" style="text;strokeColor=none;fillColor=none;align=left;verticalAlign=middle;spacingLeft=4;spacingRight=4;overflow=hidden;rotatable=0;points=[[0,0.5],[1,0.5]];portConstraint=eastwest;" vertex="1" parent="jMa4udjqpZTwk5GpyU89-98">
          <mxGeometry y="186.75555623372395" width="160" height="23.24" as="geometry" />
        </mxCell>
        <mxCell id="mwmqVNh6cQAWsO2lgj9f-25" value="&lt;span style=&quot;color: rgb(0, 0, 0); font-family: Helvetica; font-size: 12px; font-style: normal; font-variant-ligatures: normal; font-variant-caps: normal; font-weight: 400; letter-spacing: normal; orphans: 2; text-indent: 0px; text-transform: none; widows: 2; word-spacing: 0px; -webkit-text-stroke-width: 0px; white-space: nowrap; background-color: rgb(251, 251, 251); text-decoration-thickness: initial; text-decoration-style: initial; text-decoration-color: initial; float: none; display: inline !important;&quot;&gt;+ GetShifts() : List&amp;lt;Shift&amp;gt;&lt;/span&gt;" style="text;whiteSpace=wrap;html=1;align=left;verticalAlign=middle;" vertex="1" parent="jMa4udjqpZTwk5GpyU89-98">
          <mxGeometry y="209.99555623372396" width="160" height="20" as="geometry" />
        </mxCell>
        <mxCell id="jMa4udjqpZTwk5GpyU89-106" value="Shift" style="swimlane;fontStyle=1;align=center;verticalAlign=top;childLayout=stackLayout;horizontal=1;startSize=24.755556233723958;horizontalStack=0;resizeParent=1;resizeParentMax=0;resizeLast=0;collapsible=0;marginBottom=0;" parent="1" vertex="1">
          <mxGeometry x="800" y="360" width="200" height="218.51555623372394" as="geometry" />
        </mxCell>
        <mxCell id="jMa4udjqpZTwk5GpyU89-107" value="- _id : int" style="text;strokeColor=none;fillColor=none;align=left;verticalAlign=top;spacingLeft=4;spacingRight=4;overflow=hidden;rotatable=0;points=[[0,0.5],[1,0.5]];portConstraint=eastwest;" parent="jMa4udjqpZTwk5GpyU89-106" vertex="1">
          <mxGeometry y="24.755556233723958" width="200" height="25" as="geometry" />
        </mxCell>
        <mxCell id="jMa4udjqpZTwk5GpyU89-108" value="- _workDay : WorkDay" style="text;strokeColor=none;fillColor=none;align=left;verticalAlign=top;spacingLeft=4;spacingRight=4;overflow=hidden;rotatable=0;points=[[0,0.5],[1,0.5]];portConstraint=eastwest;" parent="jMa4udjqpZTwk5GpyU89-106" vertex="1">
          <mxGeometry y="49.75555623372396" width="200" height="25" as="geometry" />
        </mxCell>
        <mxCell id="jMa4udjqpZTwk5GpyU89-109" value="- _instructor : Instructor" style="text;strokeColor=none;fillColor=none;align=left;verticalAlign=top;spacingLeft=4;spacingRight=4;overflow=hidden;rotatable=0;points=[[0,0.5],[1,0.5]];portConstraint=eastwest;" parent="jMa4udjqpZTwk5GpyU89-106" vertex="1">
          <mxGeometry y="74.75555623372395" width="200" height="25" as="geometry" />
        </mxCell>
        <mxCell id="jMa4udjqpZTwk5GpyU89-110" value="- _startTime : time" style="text;strokeColor=none;fillColor=none;align=left;verticalAlign=top;spacingLeft=4;spacingRight=4;overflow=hidden;rotatable=0;points=[[0,0.5],[1,0.5]];portConstraint=eastwest;" parent="jMa4udjqpZTwk5GpyU89-106" vertex="1">
          <mxGeometry y="99.75555623372395" width="200" height="25" as="geometry" />
        </mxCell>
        <mxCell id="jMa4udjqpZTwk5GpyU89-111" value="- _endTime : time" style="text;strokeColor=none;fillColor=none;align=left;verticalAlign=top;spacingLeft=4;spacingRight=4;overflow=hidden;rotatable=0;points=[[0,0.5],[1,0.5]];portConstraint=eastwest;" parent="jMa4udjqpZTwk5GpyU89-106" vertex="1">
          <mxGeometry y="124.75555623372395" width="200" height="25" as="geometry" />
        </mxCell>
        <mxCell id="jMa4udjqpZTwk5GpyU89-112" value="- _activities : List&lt;Activity&gt;" style="text;strokeColor=none;fillColor=none;align=left;verticalAlign=top;spacingLeft=4;spacingRight=4;overflow=hidden;rotatable=0;points=[[0,0.5],[1,0.5]];portConstraint=eastwest;" parent="jMa4udjqpZTwk5GpyU89-106" vertex="1">
          <mxGeometry y="149.75555623372395" width="200" height="25" as="geometry" />
        </mxCell>
        <mxCell id="jMa4udjqpZTwk5GpyU89-113" style="line;strokeWidth=1;fillColor=none;align=left;verticalAlign=middle;spacingTop=-1;spacingLeft=3;spacingRight=3;rotatable=0;labelPosition=right;points=[];portConstraint=eastwest;strokeColor=inherit;" parent="jMa4udjqpZTwk5GpyU89-106" vertex="1">
          <mxGeometry y="174.75555623372395" width="200" height="12" as="geometry" />
        </mxCell>
        <mxCell id="mwmqVNh6cQAWsO2lgj9f-3" value="+ AddActivity(Activity) : void" style="text;strokeColor=none;fillColor=none;align=left;verticalAlign=top;spacingLeft=4;spacingRight=4;overflow=hidden;rotatable=0;points=[[0,0.5],[1,0.5]];portConstraint=eastwest;" vertex="1" parent="jMa4udjqpZTwk5GpyU89-106">
          <mxGeometry y="186.75555623372395" width="200" height="31.76" as="geometry" />
        </mxCell>
        <mxCell id="jMa4udjqpZTwk5GpyU89-114" value="Activity" style="swimlane;fontStyle=1;align=center;verticalAlign=top;childLayout=stackLayout;horizontal=1;startSize=25.076923076923077;horizontalStack=0;resizeParent=1;resizeParentMax=0;resizeLast=0;collapsible=0;marginBottom=0;" parent="1" vertex="1">
          <mxGeometry x="1160" y="360" width="320" height="188.0769230769231" as="geometry" />
        </mxCell>
        <mxCell id="jMa4udjqpZTwk5GpyU89-115" value="- _id : int" style="text;strokeColor=none;fillColor=none;align=left;verticalAlign=top;spacingLeft=4;spacingRight=4;overflow=hidden;rotatable=0;points=[[0,0.5],[1,0.5]];portConstraint=eastwest;" parent="jMa4udjqpZTwk5GpyU89-114" vertex="1">
          <mxGeometry y="25.076923076923077" width="320" height="25" as="geometry" />
        </mxCell>
        <mxCell id="jMa4udjqpZTwk5GpyU89-116" value="- _shift : Shift" style="text;strokeColor=none;fillColor=none;align=left;verticalAlign=top;spacingLeft=4;spacingRight=4;overflow=hidden;rotatable=0;points=[[0,0.5],[1,0.5]];portConstraint=eastwest;" parent="jMa4udjqpZTwk5GpyU89-114" vertex="1">
          <mxGeometry y="50.07692307692308" width="320" height="25" as="geometry" />
        </mxCell>
        <mxCell id="jMa4udjqpZTwk5GpyU89-117" value="- _startTime : time" style="text;strokeColor=none;fillColor=none;align=left;verticalAlign=top;spacingLeft=4;spacingRight=4;overflow=hidden;rotatable=0;points=[[0,0.5],[1,0.5]];portConstraint=eastwest;" parent="jMa4udjqpZTwk5GpyU89-114" vertex="1">
          <mxGeometry y="75.07692307692308" width="320" height="25" as="geometry" />
        </mxCell>
        <mxCell id="jMa4udjqpZTwk5GpyU89-118" value="- _endTime : time" style="text;strokeColor=none;fillColor=none;align=left;verticalAlign=top;spacingLeft=4;spacingRight=4;overflow=hidden;rotatable=0;points=[[0,0.5],[1,0.5]];portConstraint=eastwest;" parent="jMa4udjqpZTwk5GpyU89-114" vertex="1">
          <mxGeometry y="100.07692307692308" width="320" height="25" as="geometry" />
        </mxCell>
        <mxCell id="jMa4udjqpZTwk5GpyU89-119" value="- _type : ActivityType" style="text;strokeColor=none;fillColor=none;align=left;verticalAlign=top;spacingLeft=4;spacingRight=4;overflow=hidden;rotatable=0;points=[[0,0.5],[1,0.5]];portConstraint=eastwest;" parent="jMa4udjqpZTwk5GpyU89-114" vertex="1">
          <mxGeometry y="125.07692307692308" width="320" height="25" as="geometry" />
        </mxCell>
        <mxCell id="jMa4udjqpZTwk5GpyU89-120" style="line;strokeWidth=1;fillColor=none;align=left;verticalAlign=middle;spacingTop=-1;spacingLeft=3;spacingRight=3;rotatable=0;labelPosition=right;points=[];portConstraint=eastwest;strokeColor=inherit;" parent="jMa4udjqpZTwk5GpyU89-114" vertex="1">
          <mxGeometry y="150.0769230769231" width="320" height="13" as="geometry" />
        </mxCell>
        <mxCell id="mwmqVNh6cQAWsO2lgj9f-38" value="+ Activity(instructor: Instructor, shift: Shift, ) : Activity" style="text;strokeColor=none;fillColor=none;align=left;verticalAlign=middle;spacingLeft=4;spacingRight=4;overflow=hidden;rotatable=0;points=[[0,0.5],[1,0.5]];portConstraint=eastwest;" vertex="1" parent="jMa4udjqpZTwk5GpyU89-114">
          <mxGeometry y="163.0769230769231" width="320" height="25" as="geometry" />
        </mxCell>
        <mxCell id="jMa4udjqpZTwk5GpyU89-121" value="ScheduleRequest" style="swimlane;fontStyle=1;align=center;verticalAlign=top;childLayout=stackLayout;horizontal=1;startSize=24.755556233723958;horizontalStack=0;resizeParent=1;resizeParentMax=0;resizeLast=0;collapsible=0;marginBottom=0;" parent="1" vertex="1">
          <mxGeometry x="1760" y="360" width="300" height="211.75555623372395" as="geometry" />
        </mxCell>
        <mxCell id="jMa4udjqpZTwk5GpyU89-122" value="- _id : int" style="text;strokeColor=none;fillColor=none;align=left;verticalAlign=top;spacingLeft=4;spacingRight=4;overflow=hidden;rotatable=0;points=[[0,0.5],[1,0.5]];portConstraint=eastwest;" parent="jMa4udjqpZTwk5GpyU89-121" vertex="1">
          <mxGeometry y="24.755556233723958" width="300" height="25" as="geometry" />
        </mxCell>
        <mxCell id="jMa4udjqpZTwk5GpyU89-123" value="- _instructor : Instructor" style="text;strokeColor=none;fillColor=none;align=left;verticalAlign=top;spacingLeft=4;spacingRight=4;overflow=hidden;rotatable=0;points=[[0,0.5],[1,0.5]];portConstraint=eastwest;" parent="jMa4udjqpZTwk5GpyU89-121" vertex="1">
          <mxGeometry y="49.75555623372396" width="300" height="25" as="geometry" />
        </mxCell>
        <mxCell id="jMa4udjqpZTwk5GpyU89-124" value="- _shift : Shift" style="text;strokeColor=none;fillColor=none;align=left;verticalAlign=top;spacingLeft=4;spacingRight=4;overflow=hidden;rotatable=0;points=[[0,0.5],[1,0.5]];portConstraint=eastwest;" parent="jMa4udjqpZTwk5GpyU89-121" vertex="1">
          <mxGeometry y="74.75555623372395" width="300" height="25" as="geometry" />
        </mxCell>
        <mxCell id="jMa4udjqpZTwk5GpyU89-125" value="- _type : RequestType" style="text;strokeColor=none;fillColor=none;align=left;verticalAlign=top;spacingLeft=4;spacingRight=4;overflow=hidden;rotatable=0;points=[[0,0.5],[1,0.5]];portConstraint=eastwest;" parent="jMa4udjqpZTwk5GpyU89-121" vertex="1">
          <mxGeometry y="99.75555623372395" width="300" height="25" as="geometry" />
        </mxCell>
        <mxCell id="jMa4udjqpZTwk5GpyU89-126" value="- _startTime : time" style="text;strokeColor=none;fillColor=none;align=left;verticalAlign=top;spacingLeft=4;spacingRight=4;overflow=hidden;rotatable=0;points=[[0,0.5],[1,0.5]];portConstraint=eastwest;" parent="jMa4udjqpZTwk5GpyU89-121" vertex="1">
          <mxGeometry y="124.75555623372395" width="300" height="25" as="geometry" />
        </mxCell>
        <mxCell id="jMa4udjqpZTwk5GpyU89-127" value="- _status : ScheduleRequestStatus" style="text;strokeColor=none;fillColor=none;align=left;verticalAlign=top;spacingLeft=4;spacingRight=4;overflow=hidden;rotatable=0;points=[[0,0.5],[1,0.5]];portConstraint=eastwest;" parent="jMa4udjqpZTwk5GpyU89-121" vertex="1">
          <mxGeometry y="149.75555623372395" width="300" height="25" as="geometry" />
        </mxCell>
        <mxCell id="jMa4udjqpZTwk5GpyU89-128" style="line;strokeWidth=1;fillColor=none;align=left;verticalAlign=middle;spacingTop=-1;spacingLeft=3;spacingRight=3;rotatable=0;labelPosition=right;points=[];portConstraint=eastwest;strokeColor=inherit;" parent="jMa4udjqpZTwk5GpyU89-121" vertex="1">
          <mxGeometry y="174.75555623372395" width="300" height="12" as="geometry" />
        </mxCell>
        <mxCell id="mwmqVNh6cQAWsO2lgj9f-19" value="+ GetScheduleRequest (id : int) : ScheduleRequest" style="text;strokeColor=none;fillColor=none;align=left;verticalAlign=top;spacingLeft=4;spacingRight=4;overflow=hidden;rotatable=0;points=[[0,0.5],[1,0.5]];portConstraint=eastwest;" vertex="1" parent="jMa4udjqpZTwk5GpyU89-121">
          <mxGeometry y="186.75555623372395" width="300" height="25" as="geometry" />
        </mxCell>
        <mxCell id="mwmqVNh6cQAWsO2lgj9f-6" value="Entity" style="swimlane;fontStyle=3;align=center;verticalAlign=top;childLayout=stackLayout;horizontal=1;startSize=26;horizontalStack=0;resizeParent=1;resizeParentMax=0;resizeLast=0;collapsible=1;marginBottom=0;" vertex="1" parent="1">
          <mxGeometry x="640" y="-290" width="160" height="110" as="geometry" />
        </mxCell>
        <mxCell id="mwmqVNh6cQAWsO2lgj9f-7" value="- _id: int" style="text;strokeColor=none;fillColor=none;align=left;verticalAlign=top;spacingLeft=4;spacingRight=4;overflow=hidden;rotatable=0;points=[[0,0.5],[1,0.5]];portConstraint=eastwest;" vertex="1" parent="mwmqVNh6cQAWsO2lgj9f-6">
          <mxGeometry y="26" width="160" height="26" as="geometry" />
        </mxCell>
        <mxCell id="mwmqVNh6cQAWsO2lgj9f-8" value="" style="line;strokeWidth=1;fillColor=none;align=left;verticalAlign=middle;spacingTop=-1;spacingLeft=3;spacingRight=3;rotatable=0;labelPosition=right;points=[];portConstraint=eastwest;strokeColor=inherit;" vertex="1" parent="mwmqVNh6cQAWsO2lgj9f-6">
          <mxGeometry y="52" width="160" height="8" as="geometry" />
        </mxCell>
        <mxCell id="mwmqVNh6cQAWsO2lgj9f-9" value="+ GetId() : int&#xa;# Entity()&#xa;# Entity(id: int)" style="text;strokeColor=none;fillColor=none;align=left;verticalAlign=top;spacingLeft=4;spacingRight=4;overflow=hidden;rotatable=0;points=[[0,0.5],[1,0.5]];portConstraint=eastwest;" vertex="1" parent="mwmqVNh6cQAWsO2lgj9f-6">
          <mxGeometry y="60" width="160" height="50" as="geometry" />
        </mxCell>
        <mxCell id="mwmqVNh6cQAWsO2lgj9f-11" style="rounded=0;orthogonalLoop=1;jettySize=auto;html=1;entryX=0.128;entryY=0.998;entryDx=0;entryDy=0;endArrow=block;endFill=0;endSize=16;exitX=0.5;exitY=0;exitDx=0;exitDy=0;entryPerimeter=0;" edge="1" parent="1" source="jMa4udjqpZTwk5GpyU89-73" target="mwmqVNh6cQAWsO2lgj9f-9">
          <mxGeometry relative="1" as="geometry">
            <mxPoint x="166" y="30" as="sourcePoint" />
            <mxPoint x="650" y="-195" as="targetPoint" />
          </mxGeometry>
        </mxCell>
        <mxCell id="mwmqVNh6cQAWsO2lgj9f-16" value="Extends" style="edgeLabel;html=1;align=center;verticalAlign=middle;resizable=0;points=[];" vertex="1" connectable="0" parent="mwmqVNh6cQAWsO2lgj9f-11">
          <mxGeometry x="-0.1822" y="2" relative="1" as="geometry">
            <mxPoint as="offset" />
          </mxGeometry>
        </mxCell>
        <mxCell id="mwmqVNh6cQAWsO2lgj9f-12" style="rounded=0;orthogonalLoop=1;jettySize=auto;html=1;entryX=1;entryY=0.5;entryDx=0;entryDy=0;endArrow=block;endFill=0;endSize=16;exitX=0.5;exitY=0;exitDx=0;exitDy=0;" edge="1" parent="1" source="jMa4udjqpZTwk5GpyU89-82" target="mwmqVNh6cQAWsO2lgj9f-9">
          <mxGeometry relative="1" as="geometry">
            <mxPoint x="176" y="40" as="sourcePoint" />
            <mxPoint x="660" y="-185" as="targetPoint" />
          </mxGeometry>
        </mxCell>
        <mxCell id="mwmqVNh6cQAWsO2lgj9f-15" value="Extends" style="edgeLabel;html=1;align=center;verticalAlign=middle;resizable=0;points=[];" vertex="1" connectable="0" parent="mwmqVNh6cQAWsO2lgj9f-12">
          <mxGeometry x="-0.0451" y="5" relative="1" as="geometry">
            <mxPoint as="offset" />
          </mxGeometry>
        </mxCell>
        <mxCell id="mwmqVNh6cQAWsO2lgj9f-13" style="rounded=0;orthogonalLoop=1;jettySize=auto;html=1;entryX=1;entryY=0.5;entryDx=0;entryDy=0;endArrow=block;endFill=0;endSize=16;exitX=0;exitY=0.5;exitDx=0;exitDy=0;" edge="1" parent="1" source="jMa4udjqpZTwk5GpyU89-95" target="jMa4udjqpZTwk5GpyU89-86">
          <mxGeometry relative="1" as="geometry">
            <mxPoint x="1340" y="-115" as="sourcePoint" />
            <mxPoint x="1824" y="-340" as="targetPoint" />
          </mxGeometry>
        </mxCell>
        <mxCell id="mwmqVNh6cQAWsO2lgj9f-14" value="Extends" style="edgeLabel;html=1;align=center;verticalAlign=middle;resizable=0;points=[];" vertex="1" connectable="0" parent="mwmqVNh6cQAWsO2lgj9f-13">
          <mxGeometry x="0.0368" y="1" relative="1" as="geometry">
            <mxPoint as="offset" />
          </mxGeometry>
        </mxCell>
        <mxCell id="mwmqVNh6cQAWsO2lgj9f-21" style="rounded=0;orthogonalLoop=1;jettySize=auto;html=1;entryX=0.505;entryY=1.005;entryDx=0;entryDy=0;endArrow=block;endFill=0;endSize=16;exitX=0.5;exitY=0;exitDx=0;exitDy=0;entryPerimeter=0;edgeStyle=orthogonalEdgeStyle;curved=1;" edge="1" parent="1" source="jMa4udjqpZTwk5GpyU89-98" target="mwmqVNh6cQAWsO2lgj9f-9">
          <mxGeometry relative="1" as="geometry">
            <mxPoint x="690" y="320" as="sourcePoint" />
            <mxPoint x="822" y="120" as="targetPoint" />
            <Array as="points">
              <mxPoint x="560" y="250" />
              <mxPoint x="721" y="250" />
            </Array>
          </mxGeometry>
        </mxCell>
        <mxCell id="mwmqVNh6cQAWsO2lgj9f-22" value="Extends" style="edgeLabel;html=1;align=center;verticalAlign=middle;resizable=0;points=[];" vertex="1" connectable="0" parent="mwmqVNh6cQAWsO2lgj9f-21">
          <mxGeometry x="-0.1822" y="2" relative="1" as="geometry">
            <mxPoint x="-20" y="-75" as="offset" />
          </mxGeometry>
        </mxCell>
        <mxCell id="mwmqVNh6cQAWsO2lgj9f-27" style="rounded=0;orthogonalLoop=1;jettySize=auto;html=1;entryX=0.63;entryY=1.015;entryDx=0;entryDy=0;endArrow=block;endFill=0;endSize=16;exitX=0.5;exitY=0;exitDx=0;exitDy=0;entryPerimeter=0;curved=1;" edge="1" parent="1" target="mwmqVNh6cQAWsO2lgj9f-9">
          <mxGeometry relative="1" as="geometry">
            <mxPoint x="821" y="360" as="sourcePoint" />
            <mxPoint x="948" y="-180" as="targetPoint" />
            <Array as="points">
              <mxPoint x="750" y="130" />
            </Array>
          </mxGeometry>
        </mxCell>
        <mxCell id="mwmqVNh6cQAWsO2lgj9f-28" value="Extends" style="edgeLabel;html=1;align=center;verticalAlign=middle;resizable=0;points=[];" vertex="1" connectable="0" parent="mwmqVNh6cQAWsO2lgj9f-27">
          <mxGeometry x="-0.1822" y="2" relative="1" as="geometry">
            <mxPoint x="37" y="99" as="offset" />
          </mxGeometry>
        </mxCell>
        <mxCell id="mwmqVNh6cQAWsO2lgj9f-29" style="rounded=0;orthogonalLoop=1;jettySize=auto;html=1;endArrow=block;endFill=0;endSize=16;exitX=0;exitY=0;exitDx=0;exitDy=0;edgeStyle=orthogonalEdgeStyle;curved=1;" edge="1" parent="1" source="jMa4udjqpZTwk5GpyU89-114">
          <mxGeometry relative="1" as="geometry">
            <mxPoint x="831" y="370" as="sourcePoint" />
            <mxPoint x="770" y="-180" as="targetPoint" />
            <Array as="points">
              <mxPoint x="1160" y="320" />
              <mxPoint x="770" y="320" />
            </Array>
          </mxGeometry>
        </mxCell>
        <mxCell id="mwmqVNh6cQAWsO2lgj9f-30" value="Extends" style="edgeLabel;html=1;align=center;verticalAlign=middle;resizable=0;points=[];" vertex="1" connectable="0" parent="mwmqVNh6cQAWsO2lgj9f-29">
          <mxGeometry x="-0.1822" y="2" relative="1" as="geometry">
            <mxPoint x="80" y="-22" as="offset" />
          </mxGeometry>
        </mxCell>
        <mxCell id="mwmqVNh6cQAWsO2lgj9f-31" style="rounded=0;orthogonalLoop=1;jettySize=auto;html=1;entryX=1;entryY=0.5;entryDx=0;entryDy=0;endArrow=diamondThin;endFill=1;endSize=16;" edge="1" parent="1" source="jMa4udjqpZTwk5GpyU89-117" target="jMa4udjqpZTwk5GpyU89-110">
          <mxGeometry relative="1" as="geometry" />
        </mxCell>
        <mxCell id="mwmqVNh6cQAWsO2lgj9f-32" value="0..n" style="edgeLabel;html=1;align=center;verticalAlign=middle;resizable=0;points=[];" vertex="1" connectable="0" parent="mwmqVNh6cQAWsO2lgj9f-31">
          <mxGeometry x="-0.3861" y="2" relative="1" as="geometry">
            <mxPoint x="37" y="-17" as="offset" />
          </mxGeometry>
        </mxCell>
        <mxCell id="mwmqVNh6cQAWsO2lgj9f-33" value="1" style="edgeLabel;html=1;align=center;verticalAlign=middle;resizable=0;points=[];" vertex="1" connectable="0" parent="mwmqVNh6cQAWsO2lgj9f-31">
          <mxGeometry x="0.6646" y="-1" relative="1" as="geometry">
            <mxPoint x="-24" y="-10" as="offset" />
          </mxGeometry>
        </mxCell>
        <mxCell id="mwmqVNh6cQAWsO2lgj9f-34" style="rounded=0;orthogonalLoop=1;jettySize=auto;html=1;entryX=1;entryY=0.5;entryDx=0;entryDy=0;endArrow=diamondThin;endFill=1;endSize=16;exitX=0;exitY=0.5;exitDx=0;exitDy=0;" edge="1" parent="1" source="jMa4udjqpZTwk5GpyU89-108" target="jMa4udjqpZTwk5GpyU89-104">
          <mxGeometry relative="1" as="geometry">
            <mxPoint x="790" y="430" as="sourcePoint" />
            <mxPoint x="600" y="478.26" as="targetPoint" />
          </mxGeometry>
        </mxCell>
        <mxCell id="mwmqVNh6cQAWsO2lgj9f-35" value="0..n" style="edgeLabel;html=1;align=center;verticalAlign=middle;resizable=0;points=[];" vertex="1" connectable="0" parent="mwmqVNh6cQAWsO2lgj9f-34">
          <mxGeometry x="-0.3861" y="2" relative="1" as="geometry">
            <mxPoint x="32" y="-39" as="offset" />
          </mxGeometry>
        </mxCell>
        <mxCell id="mwmqVNh6cQAWsO2lgj9f-36" value="1" style="edgeLabel;html=1;align=center;verticalAlign=middle;resizable=0;points=[];" vertex="1" connectable="0" parent="mwmqVNh6cQAWsO2lgj9f-34">
          <mxGeometry x="0.6646" y="-1" relative="1" as="geometry">
            <mxPoint x="-17" y="-2" as="offset" />
          </mxGeometry>
        </mxCell>
        <mxCell id="mwmqVNh6cQAWsO2lgj9f-39" value="" style="group" vertex="1" connectable="0" parent="1">
          <mxGeometry x="920" y="-570" width="290" height="210" as="geometry" />
        </mxCell>
        <mxCell id="mwmqVNh6cQAWsO2lgj9f-4" value="ÐÐµÐ³ÐµÐ½Ð´Ð°" style="rounded=0;whiteSpace=wrap;html=1;fillColor=none;verticalAlign=top;" vertex="1" parent="mwmqVNh6cQAWsO2lgj9f-39">
          <mxGeometry width="290" height="210" as="geometry" />
        </mxCell>
        <mxCell id="mwmqVNh6cQAWsO2lgj9f-5" value="" style="shape=image;verticalLabelPosition=bottom;labelBackgroundColor=default;verticalAlign=top;aspect=fixed;imageAspect=0;image=data:image/png,iVBORw0KGgoAAAANSUhEUgAAAiUAAAH8CAYAAAAOtN+RAAAAAXNSR0IArs4c6QAAAARnQU1BAACxjwv8YQUAAAAJcEhZcwAADsMAAA7DAcdvqGQAAHzySURBVHhe7f15nBXVtfePrz7d55zuhm6aGUQBJ0ARJxAVsAEVNc5DtBMNRuONjzHmal7+khi9Ph3/MMONN1fz3FeSl/frTYzGq0GFqHEAcZ7nqcWBQUVABkGmnk6f7l+9d9duirYRmuF0tefzjjtVp07Vrl27DrU+e621qwtaAkwIIYQQootJhEshhBBCiC5FokQIIYQQsUCiRAghhBCxQKJECCGEELFAokQIIYQQsUCiRAghhBCxQKJECCGEELFAokQIIYQQsUCiRAghhBCxQKJECCGEELFAokQIIYQQsUCiRAghhBCxQKJECCGEELFAokQIIYQQsUCiRAghhBCxQKJECCGEELFAokQIIYQQsUCiRAghhBCxQKJECCGEELFAokQIIYQQsUCiRAghhBCxQKJECCGEELFAokQIIYQQsUCiRAghhBCxQKJECCGEELFAokQIIYQQsUCiRAghhBCxQKJECCGEELGgoCUgXN+lXH311dbQ0GC1tbVWV1f3paVfj25vbGy0bDYb1rCJX/ziF1ZdXR1+EkKI3FJTU2NVVVVuWVBQYMlk0oqLi61Hjx5WUlJipaWl27Q+ZMgQO+mkk6xv375hzULkNzkTJTfPmm2Zpqw1NGasPpNxy4ZgWc8yXHfLyPdNwf7Z5uawBrPaNats3pyZ9tPLfyhRIoToMrwoWV/Sx4aPq7SiwoSlAmGSTgXiJCzpVCqyHiyTqdZlmvXWbf0qym3CmJFW3qM0rFmI/CZnomT2skBkNLcExawxOGPGrwfFrYfbMu5zUIJmZYNl8F8bqxbMs3t/Nt0um14lUSKE6DK8KOkz6TSrvOQaSxSYFQUlGaykEiz9ekG4bpYqKLAi1gtb19lWHuw8sixhpRwshFBOiRBCCCHigUSJEEIIIWKBRIkQQgghYoFEiRBCCCFigUSJEEIIIWKBRIkQQgghYoFEiRBCCCFigUSJEEIIIWKBRIkQQgghYoFEiRBCCCFigUSJEEIIIWKBRIkQQgghYoFEiRBCCCFigUSJEEIIIWKBRIkQQgghYoFEiRBCCCFigUSJEEIIIWKBRIkQQgghYoFEiRBCCCFiQUFLQLi+S7l51mzLNGWtoTFj9ZmMWzYEy3qW4bpbRr5vCvbPNjeHNZjVrlll8+bMtJ9e/kOrrq4OtwohRG6pqamxqqoqW1/Sx4aPq7SiwoSlkklLp5JWHJZ0KhVZD5bJVOsyzXrrtn4V5TZhzEgr71Ea1ixEfpMzUXL9DTcGQqPR6uvrrbauzi3r6huCUh+uh8u61nVKJhAnTdlsWINZtrHB1i1fYtde/XOJEiFEl+FFyaKlK6xn3/5WVFQUiI20lZSUBKXYSoqLrbRtfcvbBg8cYNOmTrbeFRVhzd2L5mDQ2NDQYBs2bLDa2lpLBmKrvLzcevbsGe7x9aEusFsbN25011lYWBjcvxJ3rdz77eWLL75wBcrKytrqW7t2bYfbCwoK3LavMzkTJTNrlgQCo8Uy2eBHHBSWjWFx603BMviBu21NLW6Jl6Q50rrVixfa3N9dZZdfdL5EiRCiy/CipHj0RBtbdbEVBsYiibfElQJLFRWG660lzbIosWmfYJ1lRUnSDhzUy3qktt+wdSUY6oULF9pTTz1lb7zxhg0ePNiOOeYYO+qoo8I9vj6888479uKLL7rr7NWrl40ZM8amTZtmffr0CffoPP/4xz9s1qxZbn3KlCmuvv79+9uDDz7Y4XZE39ednOWU9OgzwHr0HWA9+w2ysgG7WdnAIdZr0B7Wa/Aw67XbcOu9x15B2dv6DN3X+g4fYf32GhmU/azf3ptKn2CfwlQ6rFEIIbqW0t79rD/Pqb1GuedWn2H7Bs+wfaz37ntaxZDhVrFb8HwbvIeVDRpiZf13c8+/Hv2CZ2Hv/lZa0deKyyqsIFEY1tb9wEuyYMEC++CDD5w4efvtt+3999+3pUuXOk/314l169bZ4sWL7eOPP7aPPvrIlixZssPXuGbNGlcX5fPPP3fRArbRf377smXLnOckG4kafJ1RoqsQQojtAlEyf/58W7lypTU1Ndnq1audIUWo8N3XiVQq5cIou+++uw0cONCFqBKJnWtCCYcRHiotLbXhw4e7gleG7TkKanQ5EiVCCCG2Cy9KVqxYEW4xJ1C+jqJkv/32s/POO8+uuuoq+/GPf2xnnHGG9e7dO/x250DeCGGak08+2aUoUL75zW/aXnvtZel0fkQJcpZTMntZxpqaW4Ji1hicMePXg+LWw20Z9zkoQbOywTL4r41VC+bZvT+bbpdNr1JOiRCiy/A5JX0mnWaVl1xjiYLAoAQlGaykgqFe0hXWC8L1YKRdUGBFrBe2rrOtPNh5ZFnCSjm4m4H4eOutt+yWW25xuSU9evRw4oTl6NGj7Qc/+IENGTIk3LsVhMqnn37qQj2EPzwY98mTJ1tFJOH33XffdXkchDTwFBQXFzsvBQZ6t912C/cyF9Yg0Zb9CR215+CDD3alIzju9ddft88++8wlsXo6OhchFdpN+0ly5doQKlwvYRz648MPP7RFixa5/cHXQ/8QluFahg0b5oQHv6HnnnvO5ajAiBEj7LDDDrPDDz/ceZx8PSNHjrT999/feWZIsKUuRN8nn3yymRjEkzNgwADbZ599nIfFQ9jphRdesFWrVrnj+Z76o/1PMu24cePc8VxbV9ItRcmFZ57slCqdjctQCCFyBUaI3ILvf//7NmDKWXkrSjDmjz/+uD399NM2aNAgZ3zJKcHgkfD6k5/8xPbdd9+2ET7igbyJJ554wp555hm3rwcDj4hBzGB8ebaTBEpBOHAs2xEXlZWVNn78ePeZ5z/5Fhjwhx9+2NXdntNOO815Gwi9YHDxRnAc50BkzJw504kZ2u3x5yJhF2PNsVzvY4895oQEya20wdfLdSHQ6I+XXnoprGVTPbQREcG1UCfXOWPGjM1EBSAKzj77bCdY/LWccsopdtZZZ7k+bWxsdL+9J5980l599VXnpfJwbQgOxN3EiROtb9++LjEWEfWf//mf7hq5dr6jjmj/+/MiihBNXUm3FCXjR+5pRx55pM2ePXuzH5IQQuxqeHBjgPEQ7HPqhXkrSu6//367++67nZeBGSKM8J9//nmbN2+e84gQ3mDb3nvv7fbHML/33nv217/+1YkIRvwejKc3jBjtOXPm2LPPPuu8Hz6fgvwNci0OOuggZ1gnTJjgRv8YZ4w0hnb9+vVhjZvA+4LH4/jjj7cDDjjAeSnwanCORx991E29xYMRHeD6c+G9QHww+wXvREeiBHHzyiuvuO/wPkQ9Lr4eRBWCgmtBNGyvKGH2D3YPMYLnJRoi41wIQOqg/unTpzuxGBUlXCdCibZE+x+xwjWdc8457lxdSbcUJSdNGu9uHD9YkoKEECJX+JHkddddZ3scf27eiRIfqmDKKt4JDCGGc+rUqe6ZjLeA5aGHHmrHHXecEw/ALBJCFYgSxAPJoocccojzMhAaQSxg/EeNGmV/+9vf7LXXXnOCAQNLeAfDTniEY5h2jNjB44I4wkhjbLk3bCdsggFGSDBbhnXfHupjCjPtxFuAp4MwDF4GwFgjFhA7CAEGwFwfXpWORAnXyhRehAQCJNoGRANCJRquQsAhqjjHyy+/3GH4hvP4KcGcmxwTrp82z5071wkhhFY0rMM2wjQs6UtsJF4ahJAXJYgRRAseLIS1D3sxewoQJeeee25bnV1BtxQlyikRQnQl+ZxT4vMwHnnkEbfEmGI48XAgVgiHIFb69evnQicnnXSSG4kjSt58803nIcDw77nnns6bsnz5cjdjh/d+YCzZl30w2IgXPBwYel4chgEdO3asM+oY/Ntvv93+93//13laEB2EdhBBzFjBM4OAwOOA4UcwYHT5Hi8X9xCxgmGnjYgF4DjED21AsFAvx2C4o6IEAXH66ac7L83f//53N0BGBFCPbwN9RVgHrwzHIejwlHA+zstxt956qzsvfeg9Infcccdm24899lgnvPAe0YeIhhNPPNGJFQQI10///vd//7cTWvQN7UPkIT68KMGb4sUZ33O/7rnnHhcmQ7xQ55lnnunCaV2VWBv8sxBCCCG2DQweHggMGnkMhFMwfIgJDCQGDUFCaAXvAPsRGuE7PBIYYwwexvP3v/+9EzZDhw51CZ3sQ9IlAgeBwqgf8XPXXXc5LwAeEjwltAHvA+fAIBOmYDtiAIMNLPnM+RAkiAb2x3gT0qBufy7vJQGOo50/+tGP7Hvf+95mdUbhmrg26vTTeDlXdH+2HXjggc47Qxtp6/aAmEG80WbqRpQhgOgv+h38dq6FthFWY/8o9DteHLwl/n5xrzgWwYJI4xi8Ml2FRIkQQohtBsPlpwGzTg7JQw895Eb2hF3Ir8Cw8R15Hng38IxgkDGCeBLwkDCKx/ghLhAmhGLwmDCLBM/I0Ucf7cIjGHQc+uSjEL4grILY4RyEI/CgYGwxrHgnfNiBJZ8RBhhcPAEYdwQNBcPtz0VSqIfjSGZGaOG1iNYZhTZRH4W6ff5IdH+20S6208btfU085+JaabO/LuqlT32dfjthI3+t7B8FIYII4fo4juPZxrF85n60PybXSJQIIYTYJjDmJFgiNsj3IKmT2SbkPyBKKIQYmICAccMjQfjCJ1VimBEBXpgw2sd4ksD5wAMPuJAKx2Es8VYQTiB0QYgIb8R9993nQiEkymLwERUYbNpFqITQix/lUw/tYLsXDdRLGygYY2/so54B1rku2u7//kxHeKNO8aKHc/lrB7+NttNGzrc9cC6ulTbTPq6Teuk7X6e/Xs7lr5X9o7AdgURdcUWiRAghxDbhRQaGb1vAm4JXBYMMCBpyTkg0xZh++9vfdjkWiAT2xQNCIX+DfZhuTO6Jn+aKd4CQCaLIh4kwzIQq8LaQt4GxBjwpCBi2+/AK++P9wAtCvgiig/awj4fj8f78v//3/1y+yJbA4PvwB3VzDurhnD5swjb6C7FFG2nr9oDAIDGYNtM+hB95Mj40BpyTUBfnom2Ei9i/u1H4i4BwfZeyYEPrH9ejoEnb1sMlCa1+m/+MAAz+a6N2zSqb9+hMG3/QAW1JSUIIkWswBkyHLRk6yoaNqwxGssEILyj8Yb5Ct/Trm392+wRDQb89HfxfvzRJr8GHbgAhFDwjiBNe0EU+Bu/xIJ8Dr4cveDYY3RPCYWSPd4SkVS82EBXkdrBkG+sIF0I1iBDCNMy+YeYMQoYcFval3wlRkIPCvnhgEBbea8O+iBpeuoZAINRDW/EQ0EaSZDkWQ86+zPrByON54D0iGHqOY4mYoO0IAsI75I7goaEd5NIgbEjO9Z4V2sY1Ui/5H4gD6qLQfu91od/oHwQN+5C4Cv4laeS5kG/TfjttoJ2+zfQt50RA0Vb6i3azHQGDh4ljEX/k4zDLidAOfUBOCUIKCK/RX/Q/fePbxnV3BfKUCCGE+EoIQyAAGO0jFDB0JHAy7fT888+3Cy64YLPCzCT/hlCOw8BiODH8GG4MISEfZs8wywYPAu8T8V4HzkN+CUabWTBMucVwIgCY+YLRxRvAtNhJkyY5IYMxJp+FpFjCSBzH8UDSLAmoCALqxzCToEs9eDN4v4oPPzEjxntyEBgYfR9+6gjqZNowS9rn2+zrQpQQVvF5G9sDniQSVBFBCBT6ifvg+5BzMTUaYcEbaNmHWTbRN992FyRKhBBCfCUYOxJSCcXgMcAoEj5hRN0+bwG8EeV7jD6ihG3MnkFE7LHHHuGerRBmYOov3g+EDG93JWQThZF7+1k2eCvwmiOMEBodQT28AfyII45oay9LptNedtllTtjQtigIFzw+TMfd2t+4oS4E2He+850vtcHXw4wY2ovHZkfg2nmPCNfUvg+5Bs5Dm3lxWjR5tzuh95QIIUQnYTScT+8pwZNBqID3dxC+IITCS87wQHREdH9G9IQNeJsqHg1CGe3/bguzQRAkjOz9378hFEHxICY6Oi/eCcIZeF94F0d7fEipI8jD8H8XhoRXD+1F8Gzr377ZUht8PXha8LrgzSGURfsRM/yO/DVG/8YN4ZuOtuNtoa6O+pDkVQQdwgSvjSd6jQiX9n/jxodv2retq8I3EiVCCNFJ8k2UCJErgn8WQgghhBBdj0SJEEIIIWKBRIkQQgghYoFEiRBCCCFigUSJEEIIIWKBRIkQQgghYoFEiRBCCCFigUSJEEIIIWKBRIkQQgghYoFEiRBCCCFigUSJEEIIIWKBRIkQQgghYoFEiRBCCCFigUSJEEIIIWKBRIkQQgghYoFEiRBCCCFigUSJEEIIIWJBQUtAuL5LmVmzxJqyLZbJNltDUFg2hsWtNwXL5nBbU4tbZoPPzZHWrV680Ob+7iq7/KLzrbq6OtwqhBC5paamxqqqqqx49EQbW3WxFRYUWLIwYSlXCixVVBiut5Y0y6LEpn2CdZYVJUk7cFAv65EqCmsWIr/JmSi5/oYbraGx0err6622rs4t6+obglIfrofLutZ1SiaTCYRMNqzBLNvYYOuWL7Frr/65RIkQosvwomTR0hXWs29/KyoqsuJ02kpKSoJSbCXFxVbatr7lbYMHDrBpUydb74qKsGYh8puciZK5c+daU1OTK4gNX6Kf23+XDQRJR82bPHmyTZkyJfwkhBC5ZeXKlTZjxgy3hEQiYclkstOlrKzMRowYEQiUElePEPlOzkSJEEIIIcRXoURXIYQQQsQCiRIhhBBCxAKJEiGEEELEAokSIYQQQsQCiRIhhBBCxAKJEiGEEELEAokSIYQQQsQCiRIhhBBCxAKJEiGEEELEAokSIYQQQsQCiRIhhBBCxAKJEiGEEELEAokSIYQQQsQCiRIhhBBCxAKJEiGEEELEAokSIYQQQsSCgpaAcH2XMnfuXGtqanIlk8m0lejn9t9ls1nrqHmTJ0+2KVOmhJ+EECK3rFy50mbMmOGWkEgkLJlMdrqUlZXZiBEjrKSkxNUjRL6TM1Fy/Q03WkNjo9XX11ttXZ1b1tU3BKU+XA+Xda3rFCdUAmHiyTY22LrlS+zaq39u1dXV4VYhhMgtNTU1VlVVZYuWrrCefftbUVGRFafTTlyUlBRbSXGxlbatb3nb4IEDbNrUyda7oiKsWYj8JmeiZGbNkkBgtFgm22wNQWHZGBa33hQsm8NtTS1umQ0+N0dat3rxQpv7u6vs8ovOlygRQnQZXpQUj55oY6sutsKCAksWJizlSoGligrD9daSZlmU2LRPsM6yoiRpBw7qZT1SRWHNQuQ3ORMls5dlrClQGIH2sMbgjBm/HhS3Hm7LuM9BCZoV6BIL/mtj1YJ5du/Ppttl06skSoQQXYYXJX0mnWaVl1xjiQKzoqAkg5VUgqVfD8RK+DkVCJdAiwTCpHWdbeXBziPLElbKwUIIJboKIYQQIh5IlAghhBAiFkiUCCGEECIWSJQIIYQQIhZIlAghhBAiFkiUCCGEECIWSJQIIYQQIhZIlAghhBAiFkiUCCGEECIWSJQIIYQQIhZIlAghhBAiFkiUCCGEECIWSJQIIYQQIhZIlAghhBAiFkiUCCGEECIWSJQIIYQQIhZIlAghhBAiFkiUCCHygieeeMJ+85vf2J133mmvv/66rV271rLZbPitECIOFP4iIFzfpbz1yWfWsHGj1W9cb7Ub1lnd+nVWu36t1a77IihrbOMXq23j2tW24YvPbcPqz2396lW2cfXKoKyy2jWtZfXihbbgmUfsiEMPsilTpoQ1CyHE1rn11lvthhtusI3BcwgxUlBQ4LazLCwstEQi0bZta6xcudLuvvtuaynrZ72GDLP64LnVsG61NQbPssb1ayyzYW1r2bjOmoJnXrZ2g2XrKRutub7WmhvrglJvRc0ZG9gjZalCjQ+FgIKWgHB9l3L9DTdaQ2Oj1dfXW21dnVvW1TcEpT5cD5d1reuUTCZjTZGRTLaxwdYtX2LXXv1zq66uDrcKIcTWue666+zGG290A5ra2lpbv369jRs3zqZOnWpHHHGE9evXz5LJZLj3V1NTU2NVVVW2aOkK69m3vxUVFVlxOm0lJSVBKbaS4mIrbVvf8rbBAwfYtKmTrXdFRVizEPlNzkTJzbNmW6YpGwiTjNUHYoNlQ7CsZxmuu2Xk+6Zg/2xzc1iDOW/JvDkz7aeX/1CiRAjRKRAlt9xyi/3kJz+x5uC5smjRItuwYYOlUinr27ev7bfffq7stdde1rNnT+c92RJelKwv6WPDx1VaUWHCUoGgSaeSVhyWdFDvpvVgmUy1LtOst27rV1FuE8aMtPIepWHNQuQ3ORMls5cFIqO5JShmjcEZM349KG493JZxn4MSNCsbLIP/2li1YJ7d+7Ppdtn0KokSIUSnQJTMmDHD7rrrLtt9993to48+skcffdSef/55+/jjj23vvfe2ww47zMaOHWtDhw61Pn36WI8ePZwXpH1Yx4uSPpNOs8pLrrFE8HVRUJLBSirB0q8XhOtmqaCOItYDrcM628qDnUeWJayUg4UQSnQVQuQfeEL23Xdf+853vmPXXHON854MGjTIZs+ebVdffbUL8zz++OO2atUqa2pqCo8SQuxqcpboumBDszW3mCtkibSth0s8In6b/4wPJ/ivDRe+eXSmjT/oACW6CiE6xZNPPmnvvvuunX322TZw4ECXP4I4qaiocPkkvXv3dut4R0iGxXuCR2TFihVOmJSWlrpjSIj1ia4lQ0fZsHGVhiMFb0lhsFLoln59889un2Ao6Leng//rl8ZrEnyIMYS5XnzxRXvppZdcH+I5oi+Ki4vDPTrHhx9+aM8995y9/PLLtmbNGhdCo66vCpntbOrq6mzp0qU2d+5cd13cb4QpuY0LFy50s7XefPNNW7ZsmfXv39/S6XR4pNiVyFMihMhrSE4lnDNt2jS74IIL7MILL3S5JYiRhx9+2O677z577LHH3DRiDNcXX3zhkvBzFPmOBSQFP/30006IURAmTKneXhAl999/v91+++3O+CMO6NNcgtBasGCB3XPPPW5m1syZM53YXL16tbs+rvOOO+6wRx55xNatWxceJXY1EiVCCBGisE7+gEcEseHfVcP9RJQgVkTX0S0TXU+aNN65YFGzTO0TQoitwYgco0Oi6+jRo8OtWwb3/ueff27z5s2zp556yl544QXnJRkyZIgTLw899JCNPvuSvEh0JYTx5z//2YUzgOcvScHDhg1znzvLgw8+aLNmzbJPPvnEjjzySDvppJNs//33dyGyXMG9xENDiI5wXVlZmZsizn1/5513XFI020eOHGk//vGPnTdN7Hq6pSgZP3JP90Nm9IKrTQghtgbhmAEDBmyzKGEE3dDQ4EIXzzzzjBMhhHHYRj4FhvrwC/9/eS1KEGh4GzDkTLNGrDU2NrrPHvJE2I7g8HkZ7UXJcccd96X3xJDbw3EcQx6PhzAP9XPe9t4qjuces8S08T374f1gG7kwbKcOwnbU7b0lzLIqLy93U8XJnyFsw3n23HNPmz59uo0aNcrlHAFihTr5LXDdHuokP4bvOI+fbs4+DKDZzrXQFrbRPn8NbON42kBborAPuTecL3rN1EW/0lcc254ttfOrztXVdEtRcuGZJzvl2tGPUgghOuIPf/iDS3bdVlFCzoSfNoyX5YMPPnAGatKkSS7x8Ve/+pUNPeG8vBYleBfmzJljb7/9tjN+EydOtMWLF7vPnl69ernthx56qJt2De1FySGHHOLCYngvPOPHj7fKykr33piowcW7gScD0dB+UIpI+sEPfuCWCA88Y7SPpNrBgwc7kYBo4noOPPBAVzffY/CZAn788cfbe++9534n2BcMuRcWXPNpp53mzvPKK68479n8+fM3E2BjxoyxPfbYw5599ll3Hi9oEAevvfaa247QIiTINoSyvwbazPHkNtGWKFwHOS/vv//+ZtdMXQcffLAdfvjhdsABB4RbN7Gldn7VuboavadECJEXRN9TsiVRwoPbh2wID2/pBWvsd9FFF1n/yWfmtShhlE5CKLNXli9fbvvss48zmkuWLHH7AYKC7QiMCRMmOEGHEPCiBLGAd8OHUTzDhw9374xBKBA6wSvw6aefuoRjZu203x/wZEyePNkZaQQQ947z4OVq7xWgLbTrtttuc22nDVwX9SJC2/Pd737XvvnNb7rz40l54403nKiIJuhi7DHyiADa60M/CBy8bQgphA5CzXvh/DXQdkQS14vAYIYY7ed3+Oqrr7rz0s7oNePpQQQh6hBx/DbxmnDcV7WTcxF6403G9DF5VHEh+GchhBD5C657XOs88BklM6r+5z//6UbzGFsMLyPKSy+91BktDABGJZfTV7sDJI5iQBFsCAoKBhqPAZ4NCl4UPkdBaHAcU7I5BsNOeAEvFfeCYzCy3CO8DYz8WWKQ2defi3WEAPeOMBuCx58LjzpiCYPO1GPEAkYZT4O/j4R2EFC0g3YjYKiP/akbY89vBEHFC/dYZ19EgW8DQgNvBn2xJfAGIdoQJ5yH4xFMtA0xg3eDPqHtzPbiWu699163jfb5c3Ecv0P6CdFCn9BHtAFvEukNiBJENoLLH0fx/YtIQmjSv9HwTlei95QIIfKC6HtKeEh7GK3yXgpG1EwBRYzgGWFkj+udkStJmIwuMVQYL9zp+faeEkbcGGLA0+TFA32KkaUfMfLf+MY3nBeJZzR9hWFllE6fY0h32203JxgQgITICAHRv0zHPvHEE51gwFNFfQjCESNGuGMx0ni5mE7MebgvJMiecsop7lzkfGDcMd60F+OMF4bzE3oDBCXHHHPMMa79CAQMOufCE0ZdtBEhQj0EEvBefP/733fbmUJMCIbZVwgKfksnn3yyawttQDTglUCYIXbIkyE8RVu4Zo7nO7b7Y/Hq0D+IEsQMQoewD/2Ch4dQGGKDkA99e/7557tzEQ5jG9489sXrQ19xfoQNgoTjECG0n3NxHIXfMt6bzz77rC3nh+vhd9/VyFMihMg7MAwYHUa9f/nLX1xoAkOI8TvhhBPs1FNPtaOPPtoZMUbUPMQxwBhZ0TEYNF7Pj0H1I3LCLoRrEHMYZsSCn4LrwUBjTDH+HEN/E7rAM8HoHcGAGMJjghjg3lEXBp4wDqEWCuts4zv2Q2iyHgVBRA4G7cQQR8ErgqjgXrf3lPiZN17wIBwQZoRZaLu/3oMOOsjN4KHtW4LvEEuIqOixnJe+8YIKEcY1cC0cQ73U7/fnWEJo55xzjhMc5MjQfjxCCCDqQeSQL4PHz/cTBSGJBwXRgsDuyIPVVUiUCCHyBkakjCQVptn5IErwJmDQPRhTb+Dpe4xk+zCBD4H4UTr9jdfCixJECIYz+oI1vArcM7xbvPiMwjrb+I6C0eV8GHrEJPVyLoQJArOzUCcGnlAQ4hWPDkuEgAfvixcHWwKvBqIEMcZ+9A3t4vfH9dJmBEI05MR35H5Ep2BzLJ/POuss52FCILENocFxXDf9RT4QSbK+nygIE7xbfI94oX/jMmlEokQIkTdgVO688067/vrr7be//a1zXzMd9Ze//KVdccUVNnXqVGcsMBSic+BVwPvgp/1uK3giOI7jdyYYZe43osa3jXN1NfQPgqsz18vvEY9Te+/OzgCvDMInLjklEiVCiLzBe0oUptn5eG9EZ8WFP+6r+hyPVdTDgbeB3AhCF8yK6aicccYZziOBQSc3xHsftheEBB4N6uM3RLiPfI7oNGa8D2+99ZYTQltiW64XOA9eJs6LaODlfYRzPJyDfBlek0++jwevCsdxDo4lLIY3paM+opx55pluJtKuEDzbg0SJECIvYKRJHJ9QgcI03QvEIvfNhzwo5HRgTH3yZrSQeEoyK6IE74gPA+1I3oRvA78VhAgJqCTJkp/BTBYKM1lIMkVE7CiEsxAUXDNJqbwvB2Hiz0XyLnk0f//73910Yx+CQZD4nBlECfk5JNN21E8URDlTg9k3DkiUCCHyAgQICa38PRuFabofGFlewubfhcI7Z/7jP/7DvX+mffmf//kflzO0M8SBB1HLe0CYKYSnDaHAlFpeyufPyx9vJCToc192BLxBRx11lHuHCPVRL/X7c3Ht9AF9wTtJyBshXEVSLvknCBpAPP3+979vO659eeCBB5RTIoQQuSbqKVGYpvtBWIJpsEzVZongYNaI9xxQMK4IBmYAcZ+3J6F1S1AXvyG8C3homAFDGwjZ+POTL0IC7M7IXcFTQkgRT8bpp5/ukn/9W4YpXDufaQfJtQgmPEi0gVAXuVLMzsGzw+wlfxyFNpNLgpeQWTx4SXZ2Ts/2oveUCCFEJ8H45dN7SpgRwjRTRuy8C4TQCaERDCezOwiNYBAxcIgBPwOH6azMgiHpFEOJAcXQEv7gO0JmvHkV7wfHYPij58Jb4OtEELAPghKvCXVggPnsC/sRmuPtpggTzkv72JfvMcIIU6B+phszzZfzMnOGMAdtwthzjzHW1MlxnJPr5Tq4VgQtdSCW/PmZbszr25kBw/7+WMJHtIF68dDRD1wz9VAHHg6+x1tB/bSRfRA31EGfkcfiE3b9+bgHTBXGo4IA8TOYvKBh6UNW0eMI6SBizj33XLfkPHERJXrNvBBCdBJeRV5VVWV9Jp2WF6+Zx1hiOP17PxAm3jATxkCUYHgxfBhpPwMHT4J/7waGn+/Yh/05zht1tnEMhjF6LsxT+zo5xh/fPuRAOM63jXW+Zz/EB3ijDAgWBBDnYj/ah5cFfP1cE4YdLwXfe/iea0N8RGetcF7255ppuz+WfdiX7Vwj+9FO2ui/oz7aw3n4juv2cM2IOwRG9HzURd8gnqizPdH+b39cR9cVByRKhBCik+SbKBEiVwT/LIQQQgghuh6JEiGEEELEAokSIYQQQsQCiRIhhBBCxAKJEiGEEELEAokSIYQQQsQCiRIhhBBCxAKJEiGEEELEAokSIYQQQsQCiRIhhBBCxAKJEiGEEELEAokSIYQQQsQCiRIhhBBCxAKJEiGEEELEgoKWgHB9l3LzrNmWacpaQ2PG6jMZt2wIlvUsw3W3jHzfFOyfbW4OazCrXbPK5s2ZaT+9/IdWXV0dbhVCiNxSU1NjVVVVtr6kjw0fV2lFhQlLJZOWTiWtOCzpVCqyHiyTqdZlmvXWbf0qym3CmJFW3qM0rFmI/CZnouSmm26yxsZGq6+vt7q6OmtoaHDr0eK3+e8zgTjJZrNhDZu49NJLXRFCiK5g/vz5duWVV9qCBQusoKDAioqKLJ1OW3FxsZWUlLilL9HP7dcHDBhglZWVVlFREdYsRH6TM1GyfPly41SU5uZmV/x6+6Vf96U9/EPu379/+EkIIXILg6bFixe7JSBMEolE23Jb1xEzZWVlVlhY6OoRIt/JmSgRQgghhPgqlOgqhBBCiFggUSKEEEKIWCBRIoQQQohYIFEihBBCiFggUSKEEEKIWCBRIoQQQohYIFEihBBCiFggUSKEEEKIWCBRIoQQQohYIFEihBBCiFggUSKEEEKIWCBRIoQQQohYIFEihBBCiFggUSKEEEKIWCBRIoQQQohYIFEihBBCiFggUSKEEEKIWCBRIoQQQohYUNASEK7vUpYvX26citLc3OyKX2+/9Ou+tGfAgAHWv3//8JMQQuSWhoYGW7x4sVtCQUGBJRKJtuW2rhcVFVlZWZkVFha6eoTId3ImSm666SZrbGy0+vp6q6urc/+YWY8Wv81/n8lkLJvNhjVs4tJLL3VFCCG6gvnz59uVV15pCxYscCIDcZFOp624uNhKSkrc0pfo5/brDLAqKyutoqIirFmI/CZnouTmWbMt05S1hsaM1Qdig2VDsKxnGa67ZeT7pmD/bHNzWINZ7ZpVNm/OTPvp5T+06urqcKsQQuSWmpoaq6qqsvUlfWz4uEorKkxYKpm0dCppxWFJp1KR9WCZTLUu06y3butXUW4Txoy08h6lYc1C5Dc5EyWzlwUio7klKGaNwRkzfj0obj3clnGfgxI0Kxssg//aWLVgnt37s+l22fQqiRIhRJfhRUmfSadZ5SXXWKLArCgoyWAllWDp1wvCdbMUHhXWC1vX2VYe7DyyLGGlHCyEUKKrEEIIIeKBRIkQQgghYoFEiRBCCCFigUSJEEIIIWKBRIkQQgghYoFEiRBCCCFigUSJEEIIIWKBRIkQQgghYoFEiRBCCCFigUSJEEIIIWKBRIkQQgghYoFEiRBCCCFigUSJEEIIIWKBRIkQQgghYoFEiRBCCCFigUSJEEIIIWKBRIkQIi944okn7Ne//rXddsed9sprr9vatWstm82G3woh4oBEiRAiL3jyySftl7/+jf35b3faQ3Pm2muvv26LPvrY1qz5wjKZjLW0tIR7CiG6CokSIUTe0NRstrKh2e755yP2s6uutn//3Y0257HHbNWqVdbU1BTuJYToKgqC0UFOhgc3z5ptmaasNTRmrD4YlbBsCJb1LMN1t4x83xTsn20OniIhtWtW2bw5M+2nl//Qqqurw61CCLF1rrvuOvvdn/4/O+K7V1hLc4ttWLrIUplaG1yWtr0G9bcRo/az0fvvZ/vuvZf17NnTCgsLwyO/TE1NjVVVVdn6kj42fFylFRUmLJVMWjqVtOKwpFOpyHqwTKZal2nWW7f1qyi3CWNGWnmP0rBmIfKbnImS62+4MRAajVZfX2+1dXVuWVffEJT6cD1c1rWuU3CpNkVivtnGBlu3fIlde/XPJUqEEJ0CUfJft91lZ/7mNisbuJutXfqxLXrxcVvy1ktWt3xxIEb2tsojDrNJh4+zPfYYan379AnESQ8rKiqygoKCsJZWvChZtHSF9ezb3+1TnE5bSUlJUIqtpLjYStvWt7xt8MABNm3qZOtdURHWLER+kzNRMrNmSSAwWiyTbbaGoLBsDItbbwqWzeG2pha3xEsSDGjaWL14oc393VV2+UXnS5QIITpFVJT03XOENQWDpMaN623DymW2ZvF8++ytF23jx+9bqnGjHTx2nB179BQ7asKR1q9fP0smk2EtrXhRUjx6oo2tutgKA9GSxFviSoGligrD9daSZlmU2LRPsM6yoiRpBw7qZT1SRWHNQuQ3ORMls5dlrClQGMR0G4MzZvx6UNx6uC3jPgclaFagSyz4r41VC+bZvT+bbpdNr5IoEUJ0iqgo6bf3fuFWs6aGOqv7YrWtWvSerVr4/jaFdbwo6TPpNKu85BpLFJgVBSUZrKQSLP16IFbCz6lAuARaJBAmretsKw92HlmWsFIO7iY0NDTYp59+agsXLrQlS5aEWzfRo0cPGzRokB1yyCGuv7qCpUuXuvbRTrxXQ4YMsf32288+/PBDe+ONN9w+I0eOtP3333+robqdAed977333IyvgQMH2l577WW77767LViwwN555x0XJRg2bJjtu+++1r9//y+J4Hyi8BcB4fouZcGGVq8HhYBM23q4RHz4bf4zcin4rw2XU/LoTBt/0AE2ZcqUcKsQQmwdZt+89FaN7TftTCvt0z/capYoSlq6Z7n13n0v67fnCCvfbZitW7/ePvzgA3vttVdtyWcrLNPY4LwcPJsI5axevdruueceKx02yoaNqwy2BfUEBY9JoVv69c0/u30CMeK3p4P/65dGoAQfugm1tbX29ttv26OPPmoPPvigvfnmm5sVDC3GF6OLQEmlUuGRuQMB8NRTT9lDDz1kH3/8sdu25557um233Xaba2dxcbENHz7ciRLCb7uSF1980e677z57+umnbePGjda7d28bPHiwPffcc3bHHXfYyy+/bM3NzTZgwADr27dvl/RZXAj+eQghhIBUaU/rPXRfO+DEb9vEi35qY6dfbrU9+2u2TidYt26dfRAIOgTLvHnzwq1dC/dq5cqVtmHDhnCLOe8Ebe3Kd9XQBtqEIImu5zPdMnxz0qTxdvbZZ9u7777rVHtpaalzw40ePdop3/Z89NFHzt3q94+iYzdHx25Cx25Odz8WI/nO4uVfCt9siWhY55PXnrXl77xsybq1tvceQ6xXeZkbhY8++5K8C99gyF944QXnKSEUwuiesAOeEYwqfb1o0SK3nef0aaedFh6ZO/A8PBaIRzwRffr0sbFjx9rxxx/vxOT777/v9sFzkqtwCb+9WbNm2SeffGIHHnigHXvssXbEEUe4EJMPJxFi8mGddDrttuUj3TJ807sk5dxtPBReffVVW7x4sXMT4g7jxraHeN4zzzzTtj//aHzRsZujY3Xs1/VYN2pPl34pfLMlChMJS6VT1rO8wpqbGm3D6lW2IhgYLV+y2OVSEMLZ/ZAJeRe+ieaU0Ad77723TZs2zU466SRnUFesWOH6ev369S5v4+CDDw6PbPVYfPHFF+44CusUhA6eAkJjHYUuOCf1ISrWrFnTdhzbmaXptyOKyA/57LPPjLANvw9ySvbYYw879NBDXT4H+S4IWLaVl5e7Yzg22p5ooW2cg7Zhd/w1cJ3RfWg/oRnWqYu2sS+hLPoDMcS5KioqXPI0YRrCOOSS+Pb40A3nwmNCfbSN6/Pnoj7Eefu+4lyff/652599OJ62RI/l/JAIftu7Oo9me+mWnpILzzzZfvzjH7sO50bwQ+HHReEB1R7/Q/H7R9Gxm6NjN6FjN6e7H/v73//e/v7I49vsKUnWr7fsyk9syUuPW80LT9nShR/YfvvuZZWTJrnR9a9+9SsbesJ5ee0pQRjipTrxxBPtyCOPtGXLlrlcm/vvv9/t+93vftcuuOACtw4Y6zlz5riclGiSLMJhn332scrKShs3bly4dRPkqbz22mv27LPPOoPrGTNmjDPmfrv3zmCAEbDeUzJ+/Hj75je/6T7jsQDyEjnX66+/7nJQOkraBXJOEFaHH364E1mEgbgG/myBx7cf6B/6gX0RbLQdQYLXDnFDLgviiP5CJOA9YYk3h+vHW0J9bHvrrbdcX9NfHoQIIvyYY46xo446Ktxqrl0zZ8505yIkNXHiRCfKosfSF3iMDjjgANttt93CrfFCs2+EEHnBlmbfRCnM1Fvz+mDE/NH7tmrhe7Z+6UdWlq21XiUpG9C/n5vBQamrq7OLLrrI+k8+U+GbQAhsS/gGrxVCgWPxYiAcPIRP2N8bfz9zh37GqHMcZf78+W6bB+8YhtZvx9BefPHFzmtB29qLkn/+85926623umNPOeUUJwIQNOyLaGgPQhdPBvsOHTrUGXuSVgkPkTfj8e0H2kEfcQ0INrwk9AeeFQ8iesKECU6k0Xb2nxSIXbxNhCPZl1k5CCZERlQweSHO7/Cwww6zyZMnO+8LQujPf/6zS+LFq4RIov7osVwPbUKQcf5czDzqLME/CyGEyF8KmrPB6KjOMmtW2MbFH9jad1+yNS89YitefMTWvPeqDejVw044/ji79NJLnZHF2PTq1Su27u9cwsgfo4fX4Pbbb3deCAQHnqSDDjrIiQbCCIgVjOXDDz/sjDnhA0IWvhBSwZAiPGbPnu2m9BL+wNOFCCAEh9jxXgJ/HJ4zDD77bg8YeEQL7fR1YuA9hFkQCYR+2Jf2cQ2cE2GAl4ZjaBNtQWghBLxHD7FCHdTpwzJ4QTgnoRvWo+AjQNRwrfTD888/7+rEs4Io4lz0VWNjo+sXvFKE0einKIgyxAz9Er0u9nvppZdcnhWhnvaexzigKcFCiLxgS1OCkw3BA33FR7b8mX/a2w/eZe889bD16ZG2qcEoevr06c7djWHioY5hwrDgKr/77rutZGj+TQnG0PmcEsRDe0ggJTRxwgknuFAEwsWHIRAkJHHyHZ4mnuMUBAz7kQ+BsSwrK3MFQXPvvfc6EUBSMyEJvAlnnHGGOw4DjfeCYzDUHEMYBGNLXonPKUF0cA/x1iCOgPAK5x01apQ7hlAIdXqDDngiyJdBdCAUmFK8fPlyJzQI/Zx33nn2jW98wyWtIhoQFN4zwTmpGw8IvxuO4/sRI0bY1KlTnYcDIUboiD7leArbXnnlFSeA2I736NRTT3XeGhJkCVkhfBB61Ee/cd2IJDw+nIdt9A1tO//88790XZwHDxDiKG7vRJGnRAiRdxCmKVi91Na+9ri998Dt9trMv1rtJ+/b/nsMtG+e/A0787RT7ZhjjnZeER7eCBIe3ggSsQn6BONLwcB5zwNiBKNIuACxgDhAyGFkKYQs8K74gmBhH/JCMLbkWSBEED8IFeolPEQYhtkrfvSPBwMB1NFbd7cFvF3eU4I3gnOTRIpwIvyBqOD+4+VA+NAurodwFTkdCBvawb78VhA+1OXbQrvxGvH7oU5+P+SUcE4K61GoG1FDXyHI6EeEE3VzDs6FqOGaaZfvy2hoCDgX4pCcFt9X0XuEQEH8cI64IVEihMgbWoIRdOMXKxWm2UlgrDF2GD9G33ymv3yoAvBkMLIndIARZHRPTga5Hb7MmDHDhRQIVeDlwCgjSPDEMOpH3JAvgkHGyHvYhkjB2HLO7YU2cm7EkffKIHgQHf43QPt9aAZBgKfEJ1cjQmiLN/7b25ZoX3lhhACibi908PxwzYi06P5ROD+hJfrFQ1uZ3cO1IH64DxIlQgjRhTRtWGMrn7jHXrrl3+3RW35nDWtW2InHH2+//OUv7YorrnBudUbdjCbFtoOBZESPwURMECLB6G0PGEqMLF6AXOG9M4RN8NiQAEoiKGKrO0LODteAsOluSJQIIfKHbJPZupUK0+xkmHlC6IIRvQ8pMJsF74MPkTBS9+EdckOYLtxRIU+DKcbkeXgPASKFsAZiJ5rHwjr5KngLGP1vL9TD1Fk8NIhS8jgIP0UTUWm/D39wfbwyHjEDeHOog2umndvblmhf+X4kD8Z7jIC+IMkVj050/yj8fvkOcdLdkCgRQuQFuP33GzXK9ho2VGGanQxizudWMDrHiJIYSq6DDyXQ/+RQkJBJWMQnuXZUjj66VShyHCIB7wmeDKbv8r4SjD+FdWao8IIwb7Q7gw8nYeARN6xj5BEkCBTOgeeEvBbaTY4H18M0X/9CPvZBPDB9l2tGlGxPW4C6Cf/QVwgKkokRYtTthR7JqiRtM1Xah3j8dOSvA5p9I4TICzCaxx13nHt2YBSjs2k6CwZLs28Wun7AIJL3QE4JU1p9Pgi5F8xa4TsMPe/iwGAjIDCoiAmMa/tCbgl1MqMELwn14JFA6JBsymwVxAn7IkoQDSSncu7Ozr4hPINwYpqsn+1CO2kfeS/MtuEc1IdwJRmWGUR+6i914TGhsF9UkHBORAyhLQTVV/2VYM5L//HuEb7D00L9tIX+4ljyXWgPS/qCfRAveJZIyKUOP/sGeB8JbeB3Dlx7R22IW4hHnhIhRF7AA5yHN6NvhWl2PnhBECAYO/IZMJwYQbwQ9DU5J0yvRghg5L23g4LRxphyj5hhwxKvgU849W96RXiwnz8OUcksk+01rMxAwdAjhHziJ0uEAG3iHN5TwjVxDXjXeCMqQgnxxT68uIy28LvyIZ7tgd8jIgoBhYBmlg11cs2+PazTL3x31llnuf5uH77pzshTIoQQnSSfPSV4AjDSeAuY/cEIHzGC2MNTQc4Dxh7hgUHlJWGIDLwm5IgwwkdcEC7je2/I+R7Rwvs42IaQwbjzHZ8RBZwTAeKPI/eD93bgKcGYUwfbqJttCAzO7UNLeEXwoHAshh+PDPkZtNnX2b6wD7N+ED8UjsMr4euh4HnAM8H5+UzbOSeCgVAQXg+EDu2Kbud3RJsQGfQhbeR6aTN9hdigj+kzfy7CWQg73p+CcPHTipnmi3Dh/hBq8u3hngDt7agNiL84odfMCyFEJ2FkXVVVZX0mnZZ3r5nHm4DB9zNkEAkIBj9ax4NA2AHjiMFkO0aXHAmECt8hFqJ5F3gI+J4QCQa1PezLMRxLHR6ECEaVc2K8ETGIIMwaRpp2YoTZj3rZD2EDGGvah8CK1tkejuf6uAbvkaEOXw/Qdv8d7Wh/7bSjoz6hPYRT6FM+cx7qob5oP3PtHvoK0cP1sL+Ha+BauCfA91w3+8JX3Zc4IVEihBCdJJ9FiRC7kuCfhRBCCCFE1yNRIoQQQohYIFEihBBCiFggUSKEEEKIWCBRIoQQQohYIFEihBBCiFggUSKEEEKIWCBRIoQQQohYIFEihBBCiFggUSKEEEKIWCBRIoQQQohYIFEihBBCiFggUSKEEEKIWCBRIoQQQohYIFEihBBCiFhQ0BIQru9SZtYssaZsi2WyzdYQFJaNYXHrTcGyOdzW1OKW2eBzc6R1qxcvtLm/u8ouv+h8q66uDrcKIURuqampsaqqKisePdHGVl1shQUFlixMWMqVAksVFYbrrSXNsiixaZ9gnWVFSdIOHNTLeqSKwpqFyG9yJkquv+FGa2hstPr6equtq3PLuvqGoNSH6+GyrnWdkslkAiGTDWswyzY22LrlS+zaq38uUSKE6DK8KFm0dIX17NvfioqKrDidtpKSkqAUW0lxsZW2rW952+CBA2za1MnWu6IirFmI/CZnomTu3LnW1NTkCmLDl+jn9t9lA0HSUfMmT55sU6ZMCT8JIURuWblypc2YMcMtIZFIWDKZ7HQpKyuzESNGBAKlxNUjRL6TM1EihBBCCPFVKNFVCCGEELFAokQIIYQQsUCiRAghhBCxQKJECCGEELFAokQIIYQQsUCiRAghhBCxQKJECCGEELFAokQIIYQQsUCiRAghhBCxQKJECCGEELFAokQIIYQQsUCiRAghhBCxQKJECCGEELFAokQIIYQQsUCiRAghhBCxQKJECCGEELFAokQIIYQQsUCiRAghhBCxQKJECCGEELGgoCUgXN+lzJ0715qamlzJZDJtJfq5/XfZbNY6at7kyZNtypQp4SchhMgtK1eutBkzZrglJBIJSyaTnS5lZWU2YsQIKykpcfUIke/kTJRcf8ON1tDYaPX19VZbV+eWdfUNQakP18NlXes6xQmVQJh4so0Ntm75Erv26p9bdXV1uFUIIXJLTU2NVVVV2aKlK6xn3/5WVFRkxem0ExclJcVWUlxspW3rW942eOAAmzZ1svWuqAhrFiK/yZkomVmzJBAYLZbJNltDUFg2hsWtNwXL5nBbU4tbZoPPzZHWrV680Ob+7iq7/KLzJUqEEF2GFyXFoyfa2KqLrbCgwJKFCUu5UmCposJwvbWkWRYlNu0TrLOsKEnagYN6WY9UUVizEPlNzkTJ7GUZawoURqA9rDE4Y8avB8Wth9sy7nNQgmYFusSC/9pYtWCe3fuz6XbZ9CqJEiFEl+FFSZ9Jp1nlJddYosCsKCjJYCWVYOnXA7ESfk4FwiXQIoEwaV1nW3mw88iyhJVysBBCia5CCCGEiAcSJUIIIYSIBRIlQgghhIgFEiVCCCGEiAUSJUIIIYSIBRIlQgghhIgFEiVCCCGEiAUSJUIIIYSIBRIlQgghhIgFEiVCCCGEiAUSJUIIIYSIBRIlQgghhIgFEiVCCCGEiAUSJUIIIYSIBRIlQgghhIgFEiVCiLygtrbWVq5cacuXL7d169ZZNpu1lpaW8FshRByQKBFC5AXvvfeezZw502677TZ78cUXnTBpbm4OvxVCxAGJEiFEXlBeXm59+/a1tWvX2qOPPmp/+tOf7L777rN3333XeVEkUIToegp/ERCu71Le+uQza9i40eo3rrfaDeusbv06q12/1mrXfRGUNbbxi9W2ce1q2/DF57Zh9ee2fvUq27h6ZVBWWe2a1rJ68UJb8MwjdsShB9mUKVPCmoUQYusUFxdbjx49bPXq1c5r8tprr9maNWtcGCeRSDhRUlBQYEVFRW5J2RKEge6++25rKetnvYYMs/rgudWwbrU1Bs+yxvVrLLNhbWvZuM6agmdetnaDZespG625PhBAjXVBqbei5owN7JGyVKHGh0JAQUuOgqrX33CjNTQ2Wn19vdXW1bllXX1DUOrD9XBZ17pOyWQy1hQ8MDzZxgZbt3yJXXv1z626ujrcKoQQWwfRwTOFsA2i4qOPPrKXXnrJ3nnnHec9GT9+vBvsjBs3znlVCgsLwyO/TE1NjVVVVdmipSusZ9/+TsgUp9NWUlISlGIrCQRQadv6lrcNHjjApk2dbL0rKsKahchvciZKbp412zJN2UCYZKw+eDCwbAiW9SzDdbeMfN8U7J+NuFTxlsybM9N+evkPJUqEENtNYzBA+uKLL+z99993XhMESkNDgxMiFYFAGDVqlI0cOdKGDx/uPCx4UqJ4UbK+pI8NH1dpRYUJSyWTlk4lrTgs6VQqsh4sk6nWZZr11m39KsptwpiRVt6jNKxZiPwmZ6Jk9rJAZDS3BCV4IARnzPj1oLj1cFvGfQ5K0KxssAz+a2PVgnl278+m22XTqyRKhBA7BfJJli5dao899pg999xz9vHHH9uIESOcx+Sggw6yQYMGOaFC6AdxQljHi5I+k06zykuusUSBWVFQksFKKtAvSVdYLwjXzVKEhlgvbF1nW3mw88iyhJVycDdgw4YNztOEx2lLpqOsrMx5mnwYTLSCp47f2kbSGOrrLRkIU/qpZ8+e4R4CJEqEEHnN9oR18lWUPP300zZ37lxbtmyZ8zZ1BH01bdo069+/vzO8ohUE3VtvvWUvvPCC89ANHjzYjjnmGDvqqKPCPQQE/yyEECJ/wfuRTqedEd1nn32c+MBYHH/88U6QENbRbJ1W1q9f77xKeJMQbx0VvE30E0v2Fa3we0GYfPbZZ67/6Bv6U2xOt/SUXHjmyfbjH//YjWyamprCb825VxnJeNdhFPZjfwrus/bo2E3o2M3RsZvIp2MRHp988onNmjXLZs+ebR9++KETLEcffbSbWvxv//Zvtvtx384rT8mDDz7o+oN+oa8IPSDoEHbMYsLo0m94SA4++GDXV0cccUTbPvkMvz+8JAhcPCZDhw61008/3U488cRwDwHdUpSMH7mnHXnkke5BwfQ+z2GHHWbHHXecG+H06dMn3NoK+z3yyCPumJdffjncugkduwkduzk6dhP5dCwjW97+ytTfe++91438S0tLbffdd3cCBsNyyHn/mreihHybyspK22uvvYxZR4S66COmWi9cuND11dSpU12/+n3yGYmSbaNbipKTJo23s88+u82N6hk2bJiNHj3a9t9/fzf6icIIif2JBeM6a4+O3YSO3Rwdu4l8OpaciSVLljhB8sADD9ibb77pZuMceOCBLvH1zjvvtBGnX5S3ooSB4UknneT6DQFSV1dnCxYscIaXN+YuXrzY9ttvPydMEC/0mQevE7OeEDJ4sjwDBgxwxnrvvfd2IsZ7X7h/HMNMqIEDBzoPzfz58905PXvuuaftu+++HeayUMfrr7/uQif8HjzUh8hENO22225uG3WuWLHCXnnlFRe64zdBnczWYjukUinr16+f8wIhUKN0dC72pwD5SlsSJZzjySefdO/PiUIb+I3SRt+P7EsIiN81kGCMRwrx44/nOBK1DznkkC8l1Pr7xb301wV4wHr16uVmoNGfQP+TY0WCLv9eOurn9vvwb4VlZ1GiqxBChHSU9IqB5cGPAT388MNt8uTJzghfdNFFNmDKWRIloSjxIN4wrI8//rgzlGPHjrVvf/vbTnDQt59//rlLlsVzheGOJsz6nB6EzJAhQ5zRI6n2nnvucefGsDJVG0Hw7LPPunviIf+H4xCNhNcw0MC9RMBQB0IIz5mH+ggzkWzqE5mpE+N68803O+OO94x2IVCpBxBMCJnvfe97bqaWN/hbOhf7Y8TxLvGb+uCDD9pEyTe+8Y22ECPH/PGPf3TnikIb8Djh1UMQ0N+IPjx/M2bMcMfTv4gQ+tQfz3EIw29961tOtHnRzbm4h88884y9+uqrbdcFiCeEDN5Dcqvoy4cffth5DKmbNtAWL3T4N4N445oprJPsTOiOPu0sOXuj64INzRZoDld4HVrberhEfPht/jNyKfivDfeekkdn2viDDtAbXYUQOx1Gj59++qk99NBDzhOCIWQ0jdE699xznSDBQLEfHpTSYaNs2LhKCzSGEyaFwUqhW/r1zT+7fQIx4reng//rl0agBB+6AVEPxx577OEMckeeCcQHQg5PAQbZG3yEHn97iDAPoTH2i8L+7EP9GDy8Inge5s2b52assD9CAaPL9uiYGs8B25kdxbE+FIdA4l7iFeCYaIIyxhyRxLEYU7wmgOcAY007GPnTJs6L5wa8IV61apU7l/cIbOlcLPHqI7Coi3Z7bwRigW0Y/rvuusudO9pG4Lr5XfK74/fItbGOpwQPBe1HaHAtJM/64zmO89KvCETvDaKdd9xxh7399tvu3P66gGOpGwFCQQSRD8Q22s80b8QN3izEEf1DuI7+4roRRwhWSvvfxbYgUSKEyGsYqfMw56HK6P6JJ55whoGHOC5zXPSMCjHAGAOMAsaIkWPJUImS9qIEUUCf4mHCkGPAJk6c6AwjYQ0MIgYUwcFoGg8H3goKfYt3gcJxjNIRDggSCsac8AVeikmTJjmxg2FH+GB8uS+cB8OIAeYYPCqES/AA4KngnP58GFaMONfDcRyDAaZ9/B5YchznY3+8Pr1793Zt4hiMPt8hLAgNIrYI+9CWMWPGOI8Cx3FehAtCDLGCYfeihKnBhLwo1IEHhfMghH072YaHBfGBgOA42uBFCdeAZ+iAAw5wx3I++gThxPkIyXB+zuX7hNwfvuMY304K1+I9PLSRPmLJPUbEcN20n+0IMsQKbec7+pB/K5TtCd1A8M9DCCHyC0aDPLAZJeK6xpAQUiAhlpg/xvHYY4+1Sy65xE499dS2EEW+zyDZFjDivq8w2hgt+ptwAYYeAch3iBLCYQwwfSE0w/GMyBl1Y4h9eAdDyHcYQ4QFIaELLrjALfmMMWVfQi+cC+OJ4eX+cq9pE/VHz8f5aQdtZLRPWIX2RUEcIUzPPPNM5y0jpIFI8Pku1I23AG8O56UNCFqOoX2+kAeJmMDAR8GQ0y8IEgw/oRNCUNF2EjKhHXiCCI8hGuhbD/1JvXjyOA/hmgkTJjiRRd9zDtqJWEIY0idbauc555zjRAVhHwQX10ndeEwQifQV94VrRQQiPPGKIbhoI2LMe2S2B/0LE0LkHRgRHqozZ860f//3f7ff/va37qHKiPH666+3iy++2BksQg4SIp0DQ43YYyQfBa8D4QC2s87I+ve//71dd911bYX3m7APBtfv742vN9gYTAwuo3RgyWeEI+vcL9qAsCHkgReBOqiL+qPn4/y0g3PRLn4DrEdBzCASCO3QBgwu3hqMPefht0T9/ljagGeIMF+ULW3nWNrKsYiGN954w26//fbN2kmeiU9GRVwgoOhjD14S8myoG88VnhHEFr9fRAV9EG0nn7fUHoTH9OnTXb4M+S4IE/alH/Ck4CGjLgQcAhDPC4KKdkXbsL3oX5sQIi9gZMiD/amnnrK//e1v9pe//MU9WHl4+ynBPKRxZ/tpv4Qi9Kr0zoGHwosJRs6EvDCSGH22YcxZx6AjGhh1+8LIm/tEmIYROYba5ztwHzC+GEhG7twbYMlnjKa/XxxDPRhKzkV9fKb+6Pk4P+1gH46h7ZzXgwjhGvgtcG4ED94aroc6OYbr8fVTj28P4ZMofjteuCjRY73QQThE24mHhL4DzomnBO+Hh7bRRtpKm307fR911E4v8jguit9OqAeBwnVQD+3G08N39CveFjwkLLlP7Mv3hLeoY3uRKBFC5AU8OAkJkDOiMM3OB6OHQSfPgX7GcOFR8LNoMOTeYLLEGDLqZupoR4XRNgbR3wsMKnVitBEPGFrwYgIvA23w9WOUMdacl23URZ0dnYvihWjUoFJHtA1bwoeWOJdvD+1ESNBu8NvxMkSJHuuFC4KgozZS6E9+t9E2bU87/f3yYsfDZ0QlYSy+Zz+gLwmRIUqA2T94SbjXiBxCWj6XZUfQvzwhRF6Ai5ncER60CtPsfBAMhBVIeiSREqOMCCAHxI/kMWgYRBJRCblcccUV7vUOHZUf/OAH7m/o+JG8N5bkRJBQSv3Aks8kfCJMEJWEETDsCA3yJjg/YQXyLTo6F+Wqq66y8847zwnTzoKQ8eES2sP1E4aJhrH8djwLUTiWtnKsD6kw3byjNlKuvPJKJ6T9TKHO4NtJnyDSEef+PScexAgzpO6//353P7mvwH3jfiKKuH9sR5iwD/XSv4S56P8dQbNvhBB5AcaBURyjc2bVRGfTIEgYRW4rGJt8n33jR/6MlMnLwAgjGBAHhBcwfsysQfTh2meETj8vWrTIGTTuB0tCE9FQhS8YaUbfhCn8lGDOyTF+WjA5DZyXhFaOYVRPguahhx7qxBD3lrawLx4LjmcGS/tzUdjOMRhfPyWYcyFwmN5KezgecUF7CP0BeRbkuSB8OBeeIvbBI8LvhH2Z/UPf0Fbazm8NjwjhDs6J4GI7YRvOj7ji2PZt9CIHYUAYxs++AQQf7UBwUB/7cr/InaJthCX53ft2sp2+pR7EHm3zfYl4pw+4fsQGYSHajCeHYxEutJV2sg0PDrN+6PvO/DvqCIkSIURegBFgmiJGgBEfo7vtfYBKlKx1hskLEmaEsPRhG0bSuPKZ2YExxNBiLCkkdXIsRtGLCo6nMGrnHOyD4WXGhxcBbMcAIi4QEByHoecYjDP3kmPwwGDsaQOF46mPe0b7OMafD7GAUacttJs2b48oYWoyAhchQt9grDH01M05OBftp420n+JFCYV1BALtxKOHAPNtpNC3eFgQLvQBQgHh0VlRwvX5PuF79iOvBiHiz8W5uW4EHkISgce1exAxXCd1c52cD+GJ4KHuHUX+SiGEEDsNDCavTj/jjDPcyDmKn9lB+AwjijCMgvFjSum//uu/uumtUfCyEN7A+BHiYD0K2zkn7/eIhjYQRswk4fuocQXOTzvIJyJctKNGFVHAdFxESvu6fGiG/oniwyInn3zyFtvgZ76ccsop7hpJJt0R6JN/+Zd/cZ6s9ufbWp/Qt9EwDdeFEETs7wz0mnkhhOgkjM6rqqqsz6TT8uo184yOvafE50q0B28F00gxXozQO2JL9RAm8CN+jB2jcrwHvL6ct+wiKnhPCCNzPAfRmTIkYXb0N1kAzwAeErwX0VkrCALvseBYoE48Jf5v3+ApwYhHPSV4J/AoAGKB4vHhJkJGeDY8hA4RJIQ/CH20Py/gAeLlctHjgDAU/Um/+neAsC+eEp8TEu23qKcEzwvH4ymJ5stsqZ0d9UkUzolnhWnL9A9iD/HCfd8ZSJQIIUQnyVdRkms6EiV4IkhYFV0DScX83SKECUIE7w/vM8ELtjMI/lkIIYQQQmwdPDB4qfCSkIiMd2ZHZ9xEkSgRQgghxFdCWIvEZEJChLCYXcWsG8JKJMTuLCRKhBBCxBJmq5AfQmiAmVNM5ybfQeQeQmm8lwQPCXkt5NGQc8L9YEbQzkKiRAghRCyJzky59tpr3YvDSDoVucfPsmEmk3/RXPvZVTsDiRIhhBCxpCNPSftpvSI34A3BK8LbZ8klIXzDbKmdjUSJEEIIIWKBRIkQQgghYoFEiRBCCCFigUSJEEIIIWKBRIkQQgghYoFEiRBCCCFigUSJEEIIIWKBRIkQQgghYoFEiRBCCCFigUSJEEIIIWKBRIkQQgghYkFBS0C4vku5edZsyzRlraExY/WZjFs2BMt6luG6W0a+bwr2zzY3hzWY1a5ZZfPmzLSfXv5Dq66uDrcKIURuqampsaqqKltf0seGj6u0osKEpZJJS6eSVhyWdCoVWQ+WyVTrMs1667Z+FeU2YcxIK+9RGtYsRH6TM1Fy0003uT99XF9fb3V1de7PH7MeLX6b/z4TiJNsNhvWsIlLL73UFSGE6Armz5/v/mLtggUL3B+N46/ZptNpKy4utpKSErf0Jfq5/fqAAQOssrLSKioqwpqFyG9yJkqWL19unIrS3Nzsil9vv/TrvrSHf8j8OWshhOgKGDQtXrzYLQFhkkgk2pbbuo6YKSsrc3+BVQiRQ1EihBBCCPFVKNFVCCGEELFAokQIIYQQsUCiRAghhBCxQKJECCGEELFAokQIIYQQsUCiRAghhBCxQKJECCGEELFAokQIIYQQsUCiRAghhBCxQKJECCGEELFAokQIIYQQsUCiRAghhBCxQKJECCGEELFAokQIIYQQsUCiRAghhBCxQKJECCGEELFAokQIIYQQsUCiRAghhBCxoKAlIFzfpSxfvtw4FaW5udkVv95+6dd9ac+AAQOsf//+4SchhMgtDQ0NtnjxYreEgoICSyQSbcttXS8qKrKysjIrLCx09QiR7+RMlNx0003W2Nho9fX1VldX5/4xsx4tfpv/PpPJWDabDWvYxKWXXuqKEEJ0BfPnz7crr7zSFixY4EQG4iKdTltxcbGVlJS4pS/Rz+3XGWBVVlZaRUVFWLMQ+U3ORMnNs2ZbpilrDY0Zqw/EBsuGYFnPMlx3y8j3TcH+2ebmsAaz2jWrbN6cmfbTy39o1dXV4VYhhMgtNTU1VlVVZetL+tjwcZVWVJiwVDJp6VTSisOSTqUi68EymWpdpllv3davotwmjBlp5T1Kw5qFyG9yJkpmLwtERnNLUMwagzNm/HpQ3Hq4LeM+ByVoVjZYBv+1sWrBPLv3Z9PtsulVEiVCiC7Di5I+k06zykuusUSBWVFQksFKKsHSrxeE62YpPCqsF7aus6082HlkWcJKOVgIoURXIYQQQsQDiRIhhBBCxAKJEiGEEELEAokSIYQQQsQCiRIhhBBCxAKJEiGEEELEAokSIYQQQsQCiRIhhBBCxAKJEiGEEELEAokSIYQQQsQCiRIhhBBCxAKJEiGEEELEAokSIYQQQsQCiRIhhBBCxAKJEiGEEELEAokSIYQQQsSCvBMldXV19umnn9qcOXPsT3/6k/3mN7+xO++8015//XVbu3atZbPZcE8hhBBC5JK8ECUIjdraWlu+fLm999579txzz9k///lPJ0b++te/2r333muPPfaYEyYff/yxffHFF5bJZKylpSWsQQghhBC7mrwQJRs2bLAPP/zQbr/9drv++uvtt7/9rX322Wd21FFH2fe//33r16+fzZ49266++mq78cYb7fHHH7dVq1ZZU1NTWIMQQgghdjUFLTlyB9w8a7ZlmrLW0Jix+kzGLRuCZT3LcN0tI983Bftnm5vDGsxq16yyeXNm2k8v/6FVV1eHWzuGMM3nn39u8+bNs3fffdcWLVrkxEkqlbK+ffvafvvtZ8OHD7devXrZ4sWL7f333+9wH8pee+1lPXv2tMLCwrB2IUQ+U1NTY1VVVba+pI8NH1dpRYUJSyWTlk4lrTgs6eA5smk9WCZTrcs0663b+lWU24QxI628R2lYsxD5Tc5EyfU33BgIjUarr6+32kAwsKyrbwhKfbgeLuta1ymEUJoiOR7ZxgZbt3yJXXv1zzsUJYRpGhoabP369bZ06VLnHSFUgzBh27hx42zq1Kl2xBFHOO9IMngweMgn+eijj+zRRx+1559/3oVx9t57bzvssMNs7NixNnToUOvTp4/16NHDioqKrKCgIDxSCJFveFGyaOkK69m3v3smFKfTVlJSEpRiKykuttK29S1vGzxwgE2bOtl6V1SENQuR3+RMlMysWRIIjBbLZJutISgsG8Pi1puCZXO4ranFLfGSNEdat3rxQpv7u6vs8ovO71CU7Iiw2BFBI4TIL7woKR490cZWXWyFwbMkibfElQJLFRWG660lzbIosWmfYJ1lRUnSDhzUy3qkisKahchvciZKZi/LWFOgMALtYY3BGTN+PShuPdyWcZ+DEjQr0CUW/NfGqgXz7N6fTbfLple1iZJtCdN0NgSzK+oUQnx98KKkz6TTrPKSaywRjG+KgpIMVlIJln49ECvh51QgXAItEgiT1nW2lQc7jyxLWCkHd3PwbK9cudIN6AiJExofNWqU7bvvvuEeYmfAABp7hG0i7QAOPvhgGzNmTIfbKd2Jwl8EhOu7lAUbWr0eFAIybevhEvHht/nPyKXgvzZcTsmjM+3Q0aOcx2L16tVOMLz55ptu9gzeET4PGzbMjjnmGDvjjDOcl2TIkCFWXFxsiUTwFNgG8IKUl5c7LwviY88993TeEm70q6++6v7hNTY2tnlaWCJMqF9hHSG+/vAMuPvuu61k6CgbNq4y+HdvTpjgMSl0S7+++We3T/AY8tvTwf/1SyNQgg/dHAZzGEQmDTz00EP2ySefWO/evV3uHs9HPRt3DkzAYCIG/fz3v//d2b9BgwbZ6NGj3QxTts+YMcNt79+/vxMr3ck2bZuVjhkbN27scDbNcccdZ7/85S/tiiuucKEWwiyEaXYEPCEo/e985zt2zTXX2E9+8hP3A9BsHSGE2ATh7wULFjjBhteEZ/L8+fNt4cKF7juxa8GDsm7dOpeb6cFzwv3oTrapW4Zv9u5XbgcccIALr+DRQDTgEWHbrgypRMM6eExQouSwDBw40J3X56oIIb6+4ImF6667zvY4/lyFb0KWLFlif/zjH11oi3c9AaEDBoiVlZVWoWTenQJe+mXLltk999xj999/v9v23e9+184777y28BkRAxg5cqTtv//+3SrNoFuKkuY1y128kpAKP3jCNIceeqgTB7tydkw0GRZh8swzzzhvDZ+56bvqvEKI+MAAaPfdd7dbbrnF9jn1QomSAJ6LGEO81hhMnoVsGzx4sHs2YzB5PncE+/FyS0b1PGM9zGQij89vp07CQYTivYHlO7wD/mWXPH8JVXAc+1Cv/1xWVtZ2HkL07MsxHMvzmwEu58CrwACUett7GDhuwIABX5roQD3syzHYAw/nLi0tde1HTDQ3N7v2Y6fYzvdso11EADivh/bTLo7z2/0xeJ8IkT3xxBNu+2mnnWZnnXWWuwbfn4AQjIpB30bq47o9vp20i34H2ozXZc2aNa6NtIe20x7OAb5vybXcWZM/uqUoOf6IQ+3EE090s2w++OAD10HkmBx99NG7dHZMdHYPggRXJQ+nCRMmaFaOEHkCD24SOXnx4oApZ0mUBPAsfPHFF23mzJmWTqfdLEdCNxjBffbZx6666io3+7EjOPa1116zZ5991j1jPeRC7LHHHm3bEQNnn32284wzKIWnn37a5s6d64QQxtIbcs7FPm+88YYzmniyeVkmb+1mViViie3e68AzfNq0aS4HA2/DO++8Y4888ojLW4xCfuIPfvADt4zik3z58yVeKABtwVtE+8mxQRDhucBeHHjgge57tr311lv2wgsv2Ntvvx0eaa79EydOdL81v51ZoOQ4IkiYXeoFEMKD7VwDguWVV15x208//XQnWDxcD22kPjxbHt/Oww8/3EUcgDYjNMlP4TzcU+4lx3FvAQHDeadPn+7SGnYG3VKUfO+sU+xHP/pRTmbHREM2mokjhADNvtmcJ5980h588EHXLxg1DC+GEYOK4broooucEcboe3i2IkgIhVMwdFFPAYbfixu277bbbnbxxRe7+hn8YcSZ3IBB914NRu5eFHHe6CwgBrIIHAy694p4TjrpJDvhhBNc2In6Xn75ZXcteC+iYPwnT57sjLcPi2CwOQ+ijOMYKHtoC8KK9iMIGEDzeopjjz3WCRNsCbaFa2EZFQq0HxHAcX47YTDsDX8aBREUhb4988wzXT1PPfWU20ZY54ILLnDr2C/aiDCjvT7EBr6d9C2erUMOOcS1FXF28803u3MhxhGGeE78ubkPiJHjjz/exo8fv1NmWgX/LLofuJnwUKAK6fALL7zQ3agVK1bYww8/bPfdd98O/S0b3Fa4v9r/rRz+0b300kvu/Jz70ksvdcqdG8gPX4JECJFP4NbH4GLkMMZ8xrhh2Bh5Y7D4HuPG+5+iYPAxknidEQA8PwnxMFuHghcDQeJDBR4+Y6QfeOABdzyCBBHCefGQUAd1d3QsIF4w9OxDOIK8C0b7GFjyBDHoeG4w1Agj3x7WET3YAuwLtoU2YncQVdgevBQIFewTx9AW7A/nox/onyjsj2cFUcI+eNu5Bo5lnT8eyyQKD32EWEEcEI7yIJZoH7apvR3CnuH1QDD94x//cOIE/HX5c3E9XDuTOLhX0b7DfiK+sImIOdrIMaxz/fRHVIztCN1ySvD4gw6wKVOmuG38kLwSRhywRMnxY/XT0oAfbTQW+VXQ+fxYZs2aZXfccYcTI3hGUKm4qVCFqGR+CNwU5ZEIkV8wUtSUYHM5BzwrMcp4PTCWjJgRJBhnjBjf84xENOBR9mBsGfHjfebZzDF4M8455xz3fOf5iifBe0EwwngZOCciBuHAd3isGRyefPLJ7tnMsezj39XBCB8DyijeiyfAXuAh4fUReCSo66677nIhC9pOXXx/yimnuDqxLXhYEAq0y4emED8Yc66Vc2EbGCxzLeQfYXsY5GK8AfFAPyBc6DfCKXxP/Qx28XYwkxRhh93hOwQLUDchnBEjRrhrJJ0AaOv555/v+oz+5hqAPuXVFgysESUID4QR+19yySXuuigIMzwsnAehRV9jWxEjtBGbyLUTTqJPaF/0uhBrtJ/27Sjd0lMSBZGBOkSR0inEBuk0fhD846DTuOl/+MMfXGwM7wmqEfUYBRXLj419//KXv9if//xnd5P4R4Zb79RTT3U5K/yQyb7n5nPTJEiEEPkKo2nECNN/MaB4rDG2GGdECAYYA4fBZvTtn708bxk88hkjiWg48sgjnSH2o3cMOnkgCIQoGEhEIedGkPB+DsIOGGp/LNvIScGrsCUIB2G0GfUjMBAsCCXa5q8LQ44ng8I62/iO/TD+GHDfHurANnAdvi0IIUI92CaMuA8ZYezpD/oFcYE9YR/25RiOpQ6uH8HAdWD4v8pTQr/zXfuBN21EvCAeEH/0K3bM9xUFcUXfY0cRXAzmvRDyYGfZhzAcoor2ct+4fxwT9azsCN1elEThhnQmrEOuCP8o+AelMI0QQnQODBGeAowyz0Vmx2AEMfCIDgZtGEJCGIRcGPjxPYNFtiFQEDMYbIwdQsGDscSAInCiYNAx5BhDjDNGm2VUgCCGECrRbR7a5NvK+RhcYgcQCdQNhHawAXjLb731VldYZxvfUbAfCBhfaA/2h+vw5yUEhKeCa0FAedvhRQl9wDa+Yx/25RigDq4BocM6omR7QCxxL+hz+pI+5VxR/LnoD+4JgoRr9HBu7CHihdwVxBVtRjBy3Vw/93Vn8LUSJVHoLBTnV730jDneJErhGdnVL2ETQoivG16UMPAj/MGMFbzSvMOFwkCQZypGmNE3A0KMY1eCgcU+IJZ2BIw9YgwvwdcdhBJ9tr3CqDN8bUUJ6nNrYR3exPq3v/3NeUkUphFCiG0Hg0zugp9IgJFmhI1HhHABhTAHI2gmGXiPNF4Ons08W3lO8z3HMesF74GH4wmZREfswPMYQYGBRAyRO8KS0bqHNpBcG93moS2ck/Z68IB7rwkQGiHXgvwWZrB0VHg/Fh4ZjLX3ZOAJ4jr8eX0YiGvBs+LTBjgP56MP2MZ39GW0zSz5jFefdTwS2wMDarxC9Dl9SZ/SHg91c2+YPk3/c0/wXEU9VFwb23NhB7+2oiQKP5iOwjrcIFQ+CTwK0wghxLaDAfNGFCOOgWYgR2ggWsgt4RnL89aHdTByGD6fZ4F4wWtN8qoXNBhP3kPS3hPBuRhEYmSpi6RX2kECqz+WbbyLwxv4KB2FGxAHtBOvOPaCQl4Kg1mfDBotJIoyrRe7ggee955wHQgIrsO3BaHBpAvEGMLLCyEvSjgW40/4iGvgev2xLPmM6NoRUUJ4jPtAnyEI6Vc8Vr6vOA9CioRWclwQWeTZcG+6gm4/+6az8GPws3WYb+4zq4lL8sPkhyWviBDiq8BLkO+zbzCiTGWlL8hT+Na3vuW8zXiaowb8oIMOcp4URAlGEWOHSOE5jJFGdCBw8BZgvHmXCO89YeTOCB5vA94NxAizbzCwiAcEDiEjPDXM4CHfg1kwHIsh51yA0Wf/9rNvSHKleDD6vj3s177OaEF8sC+eeIw4hp96aQvig6nFCAquBXGEsfeCJDr7BvCU8D3HcV7EAefkWPoj6mHBTlGA80Wvxf+VYCZoRLdzb2gn9ZCcy73ghXGIJa6F8yBKOD/3hQRb7iN9xjbawz3gM0m87EN7OjpXtD+3l7zwlESJhnVIKkKcoJAVphFCiK3jkzQZZWNMEQu85wPPAsY26iWhsA3PNAmSjPgx2IQ5eA4zm4NXLTDNFeFBfX4Ej6EnsdInfvLs5jntE1TJ/cNI8izHY4JBJ2+FOhAi/lie63g+tvZsj7aHpffs+PZQEGB4HLhe7AZtJOET4YWXnWRRjDXXx/60hTYjxHyIh2P8Oh4JZtgg3vC2+OvgWLxHCBfEwI5AvyEAESe83dVP2/XXxPnw1HCvuHb6lf71/Z5r8s5TIoQQO0o+e0oIezDSxpOAZwADjRFnhI2hbQ9iA0GAsWb6LEYSocKIH2ON0cbbQF0YQj5T+B6jjdDgnBhnwiYsMeyEilj6MAx1UB/GHaPKiJ5cE5YYXAahGF/OQ/2E6RmUevCSf1V7KAgRQv3kJVIfgofCdxh7PAp4d/z+CCaECteP4EDQIZbwanAd7IOo4bx4UhBC/lg8KpMmTXICi2tkG+fgvPQh1xa9Fvof7xD3pqNrRBTSZ7SBe+JFHoU+QxgikBAv9Cv7cb8QWIgorp366Bu8Sl91rh2hW75m/rLpVVZdXR1uFUKI3ELOQr6+Zh6DhPFFZDBhAKOM4cdYdUT7/REujNw5BjB+eFD8S9I8JIj6v4mDUcboXnnllc44ejDi1Ev9nAfjT/28V4SZQIhHjDgv/SIHBOGBoQVvkNuzpfYAx9NujDTX3R4MNMXjBRyTKnhzLW1ksgUvSEN0IHqi/cP1eBAN9Cl10B7AK0UBriN6LT4cRru3dI3+e+rjOj30GZ4iBBDXBoRoEB6IKdrovUJcN7Jha+faXiRKhBCik+SzKNkZYBQZ6fP3cbxRaw8hIrwxhBcYyeOd+OY3v+mMKbkRjOB93kh7eJU6OS8Ye97YyqxKxIk3uDsTfy7agvGOQlsJw5B3wYwgQj9+FiiCA+EhNkeiRAghOolEyY5BGIWZKbxlG4HBiBsD3t4cec8EIQXyHXgxGXkQJNgiaBAuHYkaRv5+ZE+uR/Qv5e5sePcV77wibENbEELtwSNCW0gE5d1XhEpExwT/LIQQQojcgZeA5Ff+2jteDKbGdhQOQZCQR0JBkBBiwOOBt+HCCy90s3E6AhFA3spll13mZlnuSvhrv//n//wf55GJhpaisB1RhTjiusWWkadECCE6iTwlOw88Jkx9xXvSPoeDHAdm9fgXjXn8lFRCJ/4P70XBS0IiKYLB567sSghHkQNDUi5hqfYQtiFpd1eFkL5OSJQIIUQnkSgRYtcQ/LMQQgghhOh6JEqEEEIIEQskSoQQQggRCyRKhBBCCBELJEqEEEIIEQskSoQQQggRCyRKhBBCCBELJEqEEEIIEQskSoQQQggRCyRKhBBCCBELJEqEEEIIEQty9rdvZtYssaZsi2WyzdYQFJaNYXHrTcGyOdzW1OKW2eBzc6R1qxcvtLm/u8ouv+h8/e0bIUSX4f/2TfHoiTa26mIr5G/ZFCYs5UqBpYoKw/XWkmZZlNi0T7DOsqIkaQcO6mU9UkVhzULkNzkTJdffcKM1NDZafX291dbVuWVdfUNQ6sP1cFnXuk7JZDKBkMmGNZhlGxts3fIldu3VP5coEUJ0GV6ULFq6wnr27W9FRUVWnE67vwBbUlJsJcXFVtq2vuVtgwcOsGlTJ1vvyF/AFSKfyZkomTt3rvuz1BTEhi/Rz+2/489Td9S8yZMn25QpU8JPQgiRW1auXGkzZsxwS0gkEpZMJjtdysrKbMSIEYFA0Z+zFwJyJkqEEEIIIb4KJboKIYQQIhZIlAghhBAiFkiUCCGEECIWSJQIIYQQIhZIlAghhBAiFkiUCCGEECIWSJQIIYQQIhZIlAghhBAiFkiUCCGEECIWSJQIIYQQIhZIlAghhBAiFkiUCCGEECIWSJQIIYQQIhZIlAghhBAiFkiUCCGEECIWSJQIIYQQIhZIlAghhBAiFkiUCCGEECIWSJQIIYQQIhYUtASE67uUuXPnWlNTkyuZTKatRD+3/y6bzVpHzZs8ebJNmTIl/CSEELll5cqVNmPGDLeERCJhyWSy06WsrMxGjBhhJSUlrh4h8p2ciZLrb7jRGhobrb6+3mrr6tyyrr4hKPXherisa12nOKESCBNPtrHB1i1fYtde/XOrrq4OtwohRG6pqamxqqoqW7R0hfXs29+KioqsOJ124qKkpNhKiouttG19y9sGDxxg06ZOtt4VFWHNQuQ3ORMlM2uWBAKjxTLZZmsICsvGsLj1pmDZHG5ranHLbPC5OdK61YsX2tzfXWWXX3S+RIkQosvwoqR49EQbW3WxFRYUWLIwYSlXCixVVBiut5Y0y6LEpn2CdZYVJUk7cFAv65EqCmsWIr/JmSiZvSxjTYHCCLSHNQZnzPj1oLj1cFvGfQ5K0KxAl1jwXxurFsyze3823S6bXiVRIoToMrwo6TPpNKu85BpLFJgVBSUZrKQSLP16IFbCz6lAuARaJBAmretsKw92HlmWsFIOFkIo0VUIIYQQ8UCiRAghhBCxQKJECCG6gJaWZmvJNoWfhBAgUSKEEF1AU0O9NWxcby3Nm2YYCpHvSJQIIUQXsGHlZy55PxOIEyFEKxIlQgiRQ1p47UHteqtds9I2rl5hzU2Z8BshhESJEELkEMI1DRvWWv36tYE42Rh8jr74QIj8RqJECCFyCCIkU1dn2UxjuEUI4ZEoEUKIHNLC/5qz8pAI0QESJUIIkUPcu1sTCSso0FtchWiPRIkQQuSSgoQVJVOWKNLfuxGiPRIlQgiRQxKFhVZcXmHpHuVWmErLYyJEBIkSIYTIIQWJQkv37GUlvftaSa8+VlAoj4kQHokSIYTIOQVWPnB3GzDiAEsWl4TbhBASJUIIkUvCaE1RIEaKy3q7cI4QohWJEiGE6AISiUIrTCaDNeWUCOGRKBFCCCFELMg7UbJ8+XJ7/vnn7U9/+pP98pe/tF/96lf2P//zP/biiy/a2rVrLZvVX+wUQgghuoKCloBwfZcys2aJNWVbLJNttoagsGwMi1tvCpbN4bamFrfMBp+bI61bvXihzf3dVXb5RedbdXV1uHXr1NfX28aNG+2LL76wd955x5599lm7//777ZNPPnHfjxo1yo4//nibNm2aDRkyxPr162dlZWVWVFSk6XpCiC9RU1NjVVVVVjx6oo2tutgKg+dEsjBhKVcKLFVUGK63ljTLosSmfYJ1lhUlSTtwUC/rkdIMHCEgZ6Lk+htutIbGRicQauvq3LKuviEo9eF6uKxrXadkMplAyGzyXGQbG2zd8iV27dU/75Qo+eCDD5x35L777rMPP/zQVq5c6QRKY9AeKC4utl69etmgQYNs9OjRdsIJJ9jRRx/txEnSxXyFEGITXpQsWrrCevbt7wYwxem0lZSUBKXYSoJnSmnb+pa3DR44wKZNnWy9KyrCmoXIb3ImSm6eNdsyTdlAmGSsPhAbLBuCZT3LcN0tI983BfvjLfHUrlll8+bMtJ9e/sOtihLCNAsXLrQ333zT3nvvPZs3b5699dZbtnr16jYx0p508FAZOHCgEyYHHnig7bPPPjZmzBjnSenZs6cVKkteCBHgRcn6kj42fFylFeH9CAYw6VTSisOSTqUi68EymWpdpllv3davotwmjBlp5T1Kw5qFyG9yJkpmLwtERnNLUMwagzNm/HpQ3Hq4LeM+ByVoVjZYBv+1sWrBPLv3Z9PtsulVHYqSrwrT1NbWhnttHUI2paWlNnLkSIV1hBBfwouSPpNOs8pLrrFE8DgoCkoyWEklWPr1gnDdLBU8M4pYD8Y2rLOtPNh5ZFnCSjm4G7NhwwZbt26d8263Nyk8L3v37u080hrYbTv05eeff+4G0YlEwsrLyw1PHKxYscJ9H+3b5mAA39H27tbnXytR8lVhGm5YZ+BHoLCOEKIjJEo25+mnn7a5c+fasmXLvuSJHjBggJ199tm27777uuep2DY+++wzu+2222zRokVOjDBAPuCAA5zo++Mf/2hLlizZrG8Rhh1t7259XviLgHB9l7JgQ2vSKoUskbb1cIlk8Nv8Z+RS8F8bLnzz6Ewbf9ABNmXKFLeNMM3bb79t//znP+2hhx6yxx9/3F555RX79NNP3WyapqamLyn3bYFjUJzc6DVr1jjFyo/ko48+ssWLF7vv8JogThAwQoj8gQHP3XffbSVDR9mwcZWG4xRhQsJroVv69c0/u32Cx4Xfng7+r18agRJ86GbQB4TGESTPPfecE2o8IwmRMxj0BQ8Kz1Ge1az37dvXUqlUWIvYEvTjAw88YPPnz7eGhgbbfffdXXoBEAHAFmGnSDXo0aOHs1EPP/ywiwwwixRBQl9jp7oT3dKaEqbhBixYsMBeeOEFmzlzpt1000323//93zZ79mz3D2NLeSPbAz8IbjQ3/L/+67+cGv3HP/5hr732mmsDPx5ESo6cTkII0WXgda6rq3PPvscee8z+93//11566SU3ABw8eLANHz68rfCZQRvChWfmnDlznDjheSm+GsIuffr0cakDFDz3WxoAY+/oU9//u+22mzu+O9qkbhm+Oe7wQ+y4447bKWGazqKwjhAin8M3CBImESAwnnjiCecF4VnIpADy7zCkHoQLgzfy+8j3w1jSbwcffLBbF1sGkeFzRBAYTLYg15EQ2XXXXec8JfThxRdfbPvtt5/zluDVRxySU+JzULqbTeqWoqR/ymyPPfbY6myaXQk/EG46AoWEWGbo8KPgxyCE+PoybNgwt8Qw7HH8uXknSnjmIkjwfhBa4Fl8yCGH2Pjx49uMo4cBI15m9kPM8B0DOYxpRTgNeunSpU7kEHLHC+4hURMPQfs63333XTeRgX25F/3793ciEdHj4Zm8//77u+c04f033ngj/MacoWZm5dChQ52AQlRRJwNcnueESDjOt9mz5557upAI52tv6Dk3MzzJ50AYeKiPsMtee+21mQjraH+uEXFHX3J+Ql1EAlatWuXOR7/Rn6+//ro9+eSTbiBOaGbs2LGu7+kL3w9sHzdunMst8cmxO9LPeGDoq/Z9Eu3nnZVQ2y1FSfOa5c5TsX79encDCK/gwcBLsis9JfwwKJwLQYJq5YdBfJSbgiDRrBwhvt4cdthhztDccsstts+pF+adKMG43Xzzzc7Y87ydOnWqTZ482Q466KBwj22DET0G+dVXX3WeFIQDAsGDocT7gicaQcAzF2bMmGF33nmnM9qHHnqo7b333vbII484seQh5xCvDQKCfENCRx5sx8SJE12bvaG/99577cEHH3TPcQwtXm/aRF6iB8PPtZLDQa4Gr5AA2kEyKuF9+gSh4aE+vEKcD/GAACDfA2FA2gHX7PfH6DO4xZOEiMG2/Od//qe9//77TiyQuIrowDvVHq6Xa6Fv8K54DwqJsVzvjvYzggXx2b5POO9JJ530JUGzI3RLUXL8EYfaiSeeaI8++qh7PTzqDzWIOOnM1N/OgoJGMSJG+CFzY7nplZWVdsQRRyh8I0QewMOXZPfvf//7NmDKWXknSj7++GP3Jzp47vLM++53v+sML6P8zsAzFMPMu6T8axuig0qepYz4MbCnnHKKC9lD1FgiDCisI3I8HIdxZaCIEcXAe3woBBtCnRxHKgBJpT48z3E836N/doT7jgEnVI8XAjEE5DGSeIpYY6AczZehPuwFXhlE2xlnnOHa+vLLLzsRRP6j39+HXBAmXiDsDFFCn+5oP7MPg+/2fcJxCJIf/ehHTqjvDLqlKPneWae4TsD9hYuJDHBil0wJ5odBB/JD2xlhHX4kKE1uCF3Fkh8j/wARKNwQCsp2Z7qwhBDxJZ9zSshl8DkNjJ6vvPJKGzFiRFuYYFtAkPDsxvBRD8YbT0I03MD3FMDoYqh59iIevLHkmYtQIISAlxqDjEcAceCNPM9nwjXgQxIMYPGU4E0hjMTMTYQF4F0hFMK5ECiEL7AviDGMMnVhvCdNmuS24yEh4Zc68aJEPUaIIUItCA8SUBEWrHtxga3y50LkIVKY+otXhn5oL0rYH69MR+Eb7NQf/vAH53nxooSBNInFu7Kft/c3sCWCfxbdD5Qnqowf1AUXXGCXXHKJu5F0Nj8YOo+bxQ3gh8myM3DjOQc3gh8sN5Z6udG43xAguKwuvfRS90MhBsgPQoJECJFPeE9AZ6f4kqxJqINBJKN2DBvG8Nxzz3XPdAoeaIwnA0xyGcilaO8J53u8FghEjsUO4L3huc9zHFuAofV1HnnkkW3PagQGszi9hwVj6wedeEO+/e1vu2NY8hnPBQNdRA0eBzwwJPHSNoQGtmLChAlt56KcddZZTnRwjVwr14wgw7tDG709oV3YEbwknIvclY7AI3X66ae35eNg57g+RAn2iWuOgsjZFf2MN4W2c/85jn6kP3cG3VKUREE4cAO/853v2L/927/Z//2//9fdJLwY/MC4aajdzkBsD9WH6uVYlCbLU0891bktr7jiChdb9D9+IYTIRzBIPpTdGRhh+6nBDPjwWmD0eZ572E4uBtui+0fBq4GIwMizH899Bqx4SNjGd+zjYTte7vbGG9jmE00RF74tLPnsEzoxxFwvworcENpGvQgiQihR2J9r4FpoO9dAe/CycC48DiQN/8d//IdLaP3GN77hRNPOAi/HruhnBuoIIz4TzuE80eTZHaHbixIUL0qdTkJlcrPxXvzLv/yLU4GoOzrUez+2pOj5UaEi6XhcZXQwSvCoo45yMdNzzjnHjj32WPeDRflyQ6hTia1CiHyCgRgDN56ThCwIJyBMOgNiBq8DIXEGfDxPWUa9zYQCvFcjun8UDKQfHLIfz3fq4bNvJ899D9vYp6PnNtu80Y16vlnymXpYZz8MMe3h+mlbtE+i+GNpE23nGOwGOSaEgE4++WQX7iEUgweGHEnyTfBs7Ax2ZT+z7qMQHBfNU9kRur0oiULndias43/A/JC4WQrTCCHEV8Nzk4EZRpjBGzl95EMw+wXjFAWjzcwPEoMJefjEzqg4oA6MMstoEiUzK32d0f2jsA2x4I1jFLZhE9hnW8AQ0168IIRmfFtY8tkniFIvwoJ6ETG0jTbSVtrs4bjotdF2jmF/2oUnHltFwi2DYTwvJL/yVnLyP3YGuejnnc3XSpREQdltLayDCEF4MB0KcYLbiqXCNEII0TEYVEb3DAAx1EwxZUouYQjc+FEIbzBLkvDEr3/9a/e3XMg/8M9fjDt5DCRu4nGJhoFIBqVe6ozuv6tALCGayKngtfm+LSz5TDIo14txxib4UBFto420lTZ7OM4npXKNtJ1rYH/6gL5gf+wUeRoMnhFF7NtZz9OWIAIQt37eGl9bUYI3gx8PHbylsA7ChRfBoPgVphFCiK3DwA1DyjtCyKFg1I2nhJepMVvjL3/5S1vh/R9sZ2YknhLvMUHYMBjEK83om+3MYrnjjjvajkUIMLLn+YsHm2cyz/RdhQ+vRF+fTztY8hljTlvIN6TdeM3pA9rGdtpKm337uRauiWvjGjmGa0YQ8McLSUDFK3LPPfe443ZWyCYKeStx6+et8bUVJVG2FNYhcQnRgutMYRohhNg6GC+MHM9JBnMYaQweYRz+SOGtt97aVghH8OoGnsF4FvAwkExJyJznLyEMBn8Igqeeesr+/ve/tx3LCJ5BIc9n9uOdG9Szq2DgyTMfbwhvd/XXctddd7k/8sp2UgAQItgT2kKbaBttpK202befa+GauDaukf24ZkQcXhfCJnhlbr/9dps1a5YTbnjx/ZtmdwbkU8atn7dGXoiSKNGwzm9+8xv785//bD/5yU8UphFCiE6AYcarzDsqGOTxbO0o58DPTLnooovcC+eYvoqxJG+Pl4mR8MlU1/ajc6ahsi/ebV5Ouauh7VwD3h8/GyUK22kvQoxr99A22khbaXMUrolr4xo5lmtGzDG1Fg8+fRMFccB+7LOziFs/b41u+fK0y6ZXWXV1dbhVCCFyC6PLfH15Wkf4l5KRRNl+FgZeEQw63hWMbnsIWxD+2Z6/ycIA00/VxctBaATvA7kh0P68JJCSW8FUXIQR4oLjeFEYL1BDJBxzzDF2+OGHu/121d++ibYzmhzLNTNtl/aS49H+b9/4OsgN4TzkgJCKgLAgH6Wj7d7rsTP7eUtt6+j+dhaJEiGE6CQSJV8PyCFh1gt5HV6UfOtb33JhfNE1BP8shBBCCCG6HokSIYQQQsQCiRIhhBB5CTNuyIno27evm53CW72ZeSm6DokSIYQQeQmzLUlc5XXv1157rZtJFIcZKPmMRIkQQoi8pCNPSftpuiK3SJQIIYQQIhZIlAghhBAiFkiUCCGEECIWSJQIIYQQIhZIlAghhBAiFkiUCCGEECIWSJQIIYQQIhZIlAghhBAiFkiUCCGEECIWSJQIIYQQIhZIlAghhBAiFhS0BITru5SbZ822TFPWGhozVp/JuGVDsKxnGa67ZeT7pmD/bHNzWINZ7ZpVNm/OTPvp5T+06urqcKsQQuSWmpoaq6qqsvUlfWz4uEorKkxYKpm0dCppxWFJp1KR9WCZTLUu06y3butXUW4Txoy08h6lYc1C5Dc5EyVXX321NTQ0WG1trdXV1X1p6dej2xsbGy2bzYY1bOIXv/iFRIkQosvwooSl/6NuxcXF1qNHDyspKbHS0tJtWh8yZIiddNJJ7g/CCSFyKEqEEEIIIb4K5ZQIIYQQIhZIlAghhBAiFkiUCCGEECIWSJQIIYQQIhZIlAghhBAiFkiUCCGEECIWSJQIIYQQIgaY/f8BIMYmh/4jEwQAAAAASUVORK5CYII=;" vertex="1" parent="mwmqVNh6cQAWsO2lgj9f-39">
          <mxGeometry y="25" width="172.91" height="160" as="geometry" />
        </mxCell>
        <mxCell id="mwmqVNh6cQAWsO2lgj9f-40" value="ValueObject" style="swimlane;fontStyle=1;align=center;verticalAlign=top;childLayout=stackLayout;horizontal=1;startSize=26;horizontalStack=0;resizeParent=1;resizeParentMax=0;resizeLast=0;collapsible=1;marginBottom=0;" vertex="1" parent="1">
          <mxGeometry x="2200" y="-280" width="220" height="90" as="geometry" />
        </mxCell>
        <mxCell id="mwmqVNh6cQAWsO2lgj9f-41" value="" style="line;strokeWidth=1;fillColor=none;align=left;verticalAlign=middle;spacingTop=-1;spacingLeft=3;spacingRight=3;rotatable=0;labelPosition=right;points=[];portConstraint=eastwest;strokeColor=inherit;" vertex="1" parent="mwmqVNh6cQAWsO2lgj9f-40">
          <mxGeometry y="26" width="220" height="8" as="geometry" />
        </mxCell>
        <mxCell id="mwmqVNh6cQAWsO2lgj9f-42" value="+ GethashCode(): int&#xa;+ Equals(ValueObejct obj): boolean&#xa;+ ToString(): string" style="text;strokeColor=none;fillColor=none;align=left;verticalAlign=top;spacingLeft=4;spacingRight=4;overflow=hidden;rotatable=0;points=[[0,0.5],[1,0.5]];portConstraint=eastwest;" vertex="1" parent="mwmqVNh6cQAWsO2lgj9f-40">
          <mxGeometry y="34" width="220" height="56" as="geometry" />
        </mxCell>
        <mxCell id="mwmqVNh6cQAWsO2lgj9f-43" value="ScheduleRequestStatus" style="swimlane;fontStyle=0;childLayout=stackLayout;horizontal=1;startSize=26;fillColor=none;horizontalStack=0;resizeParent=1;resizeParentMax=0;resizeLast=0;collapsible=1;marginBottom=0;" vertex="1" parent="1">
          <mxGeometry x="2320" y="200" width="190" height="52" as="geometry" />
        </mxCell>
        <mxCell id="mwmqVNh6cQAWsO2lgj9f-44" style="rounded=0;orthogonalLoop=1;jettySize=auto;html=1;entryX=0.549;entryY=1.035;entryDx=0;entryDy=0;endArrow=block;endFill=0;endSize=16;exitX=0.5;exitY=0;exitDx=0;exitDy=0;entryPerimeter=0;" edge="1" parent="1" source="mwmqVNh6cQAWsO2lgj9f-46" target="mwmqVNh6cQAWsO2lgj9f-42">
          <mxGeometry relative="1" as="geometry">
            <mxPoint x="2470" y="-77" as="sourcePoint" />
            <mxPoint x="2320" y="-80" as="targetPoint" />
          </mxGeometry>
        </mxCell>
        <mxCell id="mwmqVNh6cQAWsO2lgj9f-45" value="Extends" style="edgeLabel;html=1;align=center;verticalAlign=middle;resizable=0;points=[];" vertex="1" connectable="0" parent="mwmqVNh6cQAWsO2lgj9f-44">
          <mxGeometry x="0.0368" y="1" relative="1" as="geometry">
            <mxPoint as="offset" />
          </mxGeometry>
        </mxCell>
        <mxCell id="mwmqVNh6cQAWsO2lgj9f-46" value="SimpleValueObject&lt;T&gt;" style="swimlane;fontStyle=3;align=center;verticalAlign=top;childLayout=stackLayout;horizontal=1;startSize=26;horizontalStack=0;resizeParent=1;resizeParentMax=0;resizeLast=0;collapsible=1;marginBottom=0;" vertex="1" parent="1">
          <mxGeometry x="2240" y="-40" width="160" height="110" as="geometry" />
        </mxCell>
        <mxCell id="mwmqVNh6cQAWsO2lgj9f-47" value="- value: T" style="text;strokeColor=none;fillColor=none;align=left;verticalAlign=top;spacingLeft=4;spacingRight=4;overflow=hidden;rotatable=0;points=[[0,0.5],[1,0.5]];portConstraint=eastwest;" vertex="1" parent="mwmqVNh6cQAWsO2lgj9f-46">
          <mxGeometry y="26" width="160" height="26" as="geometry" />
        </mxCell>
        <mxCell id="mwmqVNh6cQAWsO2lgj9f-48" value="" style="line;strokeWidth=1;fillColor=none;align=left;verticalAlign=middle;spacingTop=-1;spacingLeft=3;spacingRight=3;rotatable=0;labelPosition=right;points=[];portConstraint=eastwest;strokeColor=inherit;" vertex="1" parent="mwmqVNh6cQAWsO2lgj9f-46">
          <mxGeometry y="52" width="160" height="8" as="geometry" />
        </mxCell>
        <mxCell id="mwmqVNh6cQAWsO2lgj9f-49" value="+ GetValue(): T&#xa;# ValueObject(value: T)" style="text;strokeColor=none;fillColor=none;align=left;verticalAlign=top;spacingLeft=4;spacingRight=4;overflow=hidden;rotatable=0;points=[[0,0.5],[1,0.5]];portConstraint=eastwest;" vertex="1" parent="mwmqVNh6cQAWsO2lgj9f-46">
          <mxGeometry y="60" width="160" height="50" as="geometry" />
        </mxCell>
        <mxCell id="mwmqVNh6cQAWsO2lgj9f-50" style="rounded=0;orthogonalLoop=1;jettySize=auto;html=1;entryX=0.5;entryY=1;entryDx=0;entryDy=0;endArrow=block;endFill=0;endSize=16;exitX=0.5;exitY=0;exitDx=0;exitDy=0;" edge="1" parent="1" target="mwmqVNh6cQAWsO2lgj9f-46">
          <mxGeometry relative="1" as="geometry">
            <mxPoint x="2414.47" y="200" as="sourcePoint" />
            <mxPoint x="2415.47" y="52" as="targetPoint" />
          </mxGeometry>
        </mxCell>
        <mxCell id="mwmqVNh6cQAWsO2lgj9f-51" value="Extends" style="edgeLabel;html=1;align=center;verticalAlign=middle;resizable=0;points=[];" vertex="1" connectable="0" parent="mwmqVNh6cQAWsO2lgj9f-50">
          <mxGeometry x="0.0368" y="1" relative="1" as="geometry">
            <mxPoint as="offset" />
          </mxGeometry>
        </mxCell>
        <mxCell id="mwmqVNh6cQAWsO2lgj9f-53" value="TimeRange" style="swimlane;fontStyle=0;childLayout=stackLayout;horizontal=1;startSize=26;fillColor=none;horizontalStack=0;resizeParent=1;resizeParentMax=0;resizeLast=0;collapsible=1;marginBottom=0;" vertex="1" parent="1">
          <mxGeometry x="2090" y="200" width="190" height="52" as="geometry" />
        </mxCell>
        <mxCell id="mwmqVNh6cQAWsO2lgj9f-54" style="rounded=0;orthogonalLoop=1;jettySize=auto;html=1;entryX=0.406;entryY=0.991;entryDx=0;entryDy=0;endArrow=block;endFill=0;endSize=16;exitX=0.5;exitY=0;exitDx=0;exitDy=0;entryPerimeter=0;" edge="1" parent="1" target="mwmqVNh6cQAWsO2lgj9f-49">
          <mxGeometry relative="1" as="geometry">
            <mxPoint x="2200" y="200" as="sourcePoint" />
            <mxPoint x="2105.53" y="70" as="targetPoint" />
          </mxGeometry>
        </mxCell>
        <mxCell id="mwmqVNh6cQAWsO2lgj9f-55" value="Extends" style="edgeLabel;html=1;align=center;verticalAlign=middle;resizable=0;points=[];" vertex="1" connectable="0" parent="mwmqVNh6cQAWsO2lgj9f-54">
          <mxGeometry x="0.0368" y="1" relative="1" as="geometry">
            <mxPoint as="offset" />
          </mxGeometry>
        </mxCell>
      </root>
    </mxGraphModel>
  </diagram>
</mxfile>
